<?xml version="1.0" encoding="utf-8"?>
<!-- Generator: Adobe Illustrator 22.1.0, SVG Export Plug-In . SVG Version: 6.00 Build 0)  -->
<svg version="1.1" id="Layer_1" xmlns="http://www.w3.org/2000/svg" xmlns:xlink="http://www.w3.org/1999/xlink" x="0px" y="0px"
	 viewBox="0 0 32 32" style="enable-background:new 0 0 32 32;" xml:space="preserve">
<style type="text/css">
	.st0{fill:#4D4D4F;}
	.st1{fill:#FFFFFF;}
</style>
<g>
	<path class="st0" d="M16,0C7.2,0,0,7.2,0,16s7.2,16,16,16s16-7.2,16-16S24.8,0,16,0z"/>
</g>
<g>
	<path class="st1" d="M14.3,15.6c0,0,1.7-0.1,1.7-2.1s-1.1-3-2.9-3h-6v11.1h6.1c0,0,3,0.1,3-3.3C16.3,18.2,16.5,15.6,14.3,15.6z
		 M9.3,12.1h3.1c0,0,1,0,1,1.4s-1,1.4-1,1.4H9.3V12.1z M12.7,19.9H9.3v-3.3h3.3c0,0,1.7,0,1.7,1.7S12.9,19.9,12.7,19.9z"/>
	<path class="st1" d="M21,13.2c-4.2,0-4.2,4.2-4.2,4.2s-0.3,4.2,4.2,4.2c0,0,3.9,0,3.9-3.3h-2.2c0,0,0,1.7-1.7,1.7
		c0,0-1.7,0-1.7-2.2c0,0,4.4,0,5.5,0C24.9,16.6,24.9,13.2,21,13.2z M19.3,16.6c0,0,0-1.7,1.7-1.7s1.7,1.7,1.7,1.7H19.3z"/>
	<rect x="18.8" y="11.6" class="st1" width="4.4" height="1.1"/>
</g>
</svg>
