<?xml version="1.0" encoding="utf-8"?>
<!-- Generator: Adobe Illustrator 22.1.0, SVG Export Plug-In . SVG Version: 6.00 Build 0)  -->
<svg version="1.1" id="Layer_1" xmlns="http://www.w3.org/2000/svg" xmlns:xlink="http://www.w3.org/1999/xlink" x="0px" y="0px"
	 viewBox="0 0 85 85" style="enable-background:new 0 0 85 85;" xml:space="preserve">
<style type="text/css">
	.st0{opacity:0.5;enable-background:new    ;}
	.st1{fill:none;stroke:#FFFFFF;stroke-miterlimit:10;}
	.st2{display:none;}
	.st3{display:inline;}
	.st4{fill:none;stroke:#000000;stroke-miterlimit:10;}
	.st5{fill:none;stroke:#FFFFFF;stroke-width:7;stroke-miterlimit:10;}
</style>
<g class="st0">
	<path class="st1" d="M82,3v79H3V3H82 M85,0H0v85h85V0L85,0z"/>
</g>
<g class="st2">
	<rect x="-383.5" y="-224" class="st3" width="466" height="211.5"/>
</g>
<g class="st2">
	<g class="st3">
		<g>
			<polygon points="7.3,-111.3 7.3,-104.3 16,-112.6 24.8,-104.3 24.8,-111.3 16,-119.6 			"/>
		</g>
		<g>
			<path d="M0-127.5v32h32v-32H0z M25.8-102l-9.8-9.2L6.2-102v-9.8L16-121l9.8,9.2V-102z"/>
		</g>
	</g>
</g>
<g class="st2">
	<g class="st3">
		<path d="M15.3-121.3l-9.1,9.8l9.1,9.7h10.6l-9.2-9.7l9.1-9.8H15.3z M21.2-103.8h-5.1l-7.2-7.7l7.2-7.8h5.1l-7.2,7.8L21.2-103.8z"
			/>
		<path d="M0-95.5h32v-32H0V-95.5z M2-125.5h28v28H2V-125.5z"/>
	</g>
</g>
<g class="st2">
	<g class="st3">
		<g>
			<g>
				<polygon class="st4" points="16.1,-102.3 7.3,-111.5 16.1,-120.8 24.4,-120.8 15.7,-111.5 24.4,-102.3 				"/>
			</g>
		</g>
	</g>
	<g class="st3">
		<path d="M31-126.5v30H1v-30H31 M32-127.5H0v32h32V-127.5L32-127.5z"/>
	</g>
</g>
<line class="st5" x1="15" y1="24.6" x2="70" y2="24.6"/>
<line class="st5" x1="15" y1="42.5" x2="70" y2="42.5"/>
<line class="st5" x1="15" y1="60.8" x2="70" y2="60.8"/>
</svg>
