<svg id="Objects" xmlns="http://www.w3.org/2000/svg" viewBox="0 0 70 70"><defs><style>.cls-1{fill:none;stroke:#1d1d1b;stroke-miterlimit:10;stroke-width:2px;}.cls-2{fill:#1d1d1b;}</style></defs><rect class="cls-1" x="10" y="10" width="50" height="50"/><path class="cls-2" d="M48.53,20.7l.09.07a2.43,2.43,0,0,0,.55.33,1.31,1.31,0,0,0,.57.13.68.68,0,0,0,.31-.08.22.22,0,0,0,.15-.22.18.18,0,0,0-.09-.18.71.71,0,0,0-.26-.09H49.8l-.36-.07a1.83,1.83,0,0,1-.93-.43,1.13,1.13,0,0,1-.36-.88,1.62,1.62,0,0,1,.18-.77,1.58,1.58,0,0,1,.48-.58,2.06,2.06,0,0,1,.69-.36,2.66,2.66,0,0,1,.79-.12,2.94,2.94,0,0,1,1.57.43l-.49,1.27a2.1,2.1,0,0,0-.51-.27,1.4,1.4,0,0,0-.53-.11.46.46,0,0,0-.26.07.2.2,0,0,0-.13.2.16.16,0,0,0,.09.15.87.87,0,0,0,.23.08h0l.41.09a1.9,1.9,0,0,1,1,.48,1.23,1.23,0,0,1,.35.94,1.73,1.73,0,0,1-.17.76,1.52,1.52,0,0,1-.49.55,2.47,2.47,0,0,1-.69.34,3,3,0,0,1-.79.11,4.3,4.3,0,0,1-1-.12A4,4,0,0,1,48,22.1Z"/><path class="cls-2" d="M48,37.5h2.21a3.07,3.07,0,0,1,.82.1,1.81,1.81,0,0,1,.66.3,1.48,1.48,0,0,1,.45.54,1.81,1.81,0,0,1,.17.8,1.38,1.38,0,0,1-.23.84,1.58,1.58,0,0,1-.75.46v.06l0,0a1.39,1.39,0,0,1,.27.28l1.06,1.6H50.62l-.78-1.58h0V42.5H48Zm1.83,2.17h.12a1,1,0,0,0,.43-.08.34.34,0,0,0,.16-.33.35.35,0,0,0-.15-.34.82.82,0,0,0-.42-.09h-.14Z"/><path class="cls-2" d="M29.21,22.5h-2l1.74-5h2l1.79,5h-2l-.16-.58H29.35Zm1.14-1.83-.21-.87c0-.13-.06-.33-.11-.61v0H30l-.33,1.5Z"/><path class="cls-2" d="M29.21,32.5h-2l1.74-5h2l1.79,5h-2l-.16-.58H29.35Zm1.14-1.83-.21-.87c0-.13-.06-.33-.11-.61v0H30l-.33,1.5Z"/><path class="cls-2" d="M27.67,37.5h1.75v1.67H30.5V37.5h1.83v5H30.58V40.75H29.5V42.5H27.67Z"/><path class="cls-2" d="M27.5,47.5h1.71l1.64,2.75h0v-.07c0-.25-.08-.47-.1-.66a3.23,3.23,0,0,1,0-.53V47.5H32.5v5H30.78l-1.59-2.67h-.05a7.13,7.13,0,0,1,.11,1V52.5H27.5Z"/><path class="cls-2" d="M37.67,17.5h1.77l0,2.17h0a1.54,1.54,0,0,1,.21-.49l0-.08.87-1.6h2L41,19.93l1.73,2.57H40.59L39.73,21l-.11-.17a1.24,1.24,0,0,1-.19-.41h0l0,2.08H37.67Z"/><path class="cls-2" d="M39.4,27.5,40,28.83H40l0-.11.13-.37.37-.85h2l-1.69,2.84V32.5H39.08V30.4L37.3,27.5Z"/><path class="cls-2" d="M42.25,37.5v2.94a2,2,0,0,1-.6,1.58,3,3,0,0,1-3.38,0,2,2,0,0,1-.61-1.58V37.5H39.5v2.77a2.63,2.63,0,0,0,0,.3.79.79,0,0,0,.06.22.28.28,0,0,0,.15.15.68.68,0,0,0,.56,0,.28.28,0,0,0,.15-.15.79.79,0,0,0,.06-.22,2.63,2.63,0,0,0,0-.3V37.5Z"/><path class="cls-2" d="M39.21,52.5h-2l1.74-5h2l1.79,5h-2l-.16-.58H39.35Zm1.14-1.83-.21-.87c0-.13-.06-.33-.11-.61v0H40l-.33,1.5Z"/><path class="cls-2" d="M17.67,37.5h1.77l0,2.17h0a1.54,1.54,0,0,1,.21-.49l0-.08.87-1.6h2L21,39.93l1.73,2.57H20.59L19.73,41l-.11-.17a1.24,1.24,0,0,1-.19-.41h0l0,2.08H17.67Z"/><path class="cls-2" d="M17.67,27.5h1.75v1.67H20.5V27.5h1.75v5H20.5V30.75H19.42V32.5H17.67Z"/><path class="cls-2" d="M19.21,52.5h-2l1.74-5h2l1.79,5h-2l-.16-.58H19.35Zm1.14-1.83-.21-.87c0-.13-.06-.33-.11-.61v0H20l-.33,1.5Z"/><circle class="cls-2" cx="20" cy="21.55" r="1"/><circle class="cls-2" cx="50" cy="31.55" r="1"/><circle class="cls-2" cx="50" cy="51.55" r="1"/></svg>