<?xml version="1.0" encoding="utf-8"?>
<!-- Generator: Adobe Illustrator 23.0.2, SVG Export Plug-In . SVG Version: 6.00 Build 0)  -->
<svg version="1.1" xmlns="http://www.w3.org/2000/svg" xmlns:xlink="http://www.w3.org/1999/xlink" x="0px" y="0px"
	 viewBox="0 0 850.394 850.394" style="enable-background:new 0 0 850.394 850.394;" xml:space="preserve">
<style type="text/css">
	.st0{fill:none;stroke:#000000;stroke-width:25;stroke-miterlimit:10;}
</style>
<g id="Construction">
</g>
<g id="Layer_1">
	<g>
	</g>
	<rect x="124.537" y="124.537" class="st0" width="601.319" height="601.319"/>
	<g>
		<path d="M587.198,248.027l1.147,0.902c2.239,1.748,4.533,3.127,6.883,4.137c2.348,1.012,4.724,1.516,7.128,1.516
			c1.365,0,2.663-0.299,3.893-0.9c1.229-0.601,1.843-1.529,1.843-2.786c0-1.092-0.383-1.856-1.146-2.294
			c-0.766-0.437-1.831-0.791-3.195-1.065l-0.656-0.081l-4.506-0.82c-4.753-0.818-8.632-2.607-11.635-5.367
			c-3.005-2.757-4.507-6.432-4.507-11.02c0-3.551,0.737-6.746,2.213-9.586c1.475-2.84,3.481-5.258,6.021-7.252
			c2.54-1.993,5.421-3.494,8.645-4.506c3.223-1.01,6.526-1.516,9.914-1.516c7.155,0,13.683,1.803,19.582,5.407l-6.063,15.813
			c-2.131-1.42-4.261-2.553-6.392-3.4c-2.13-0.846-4.342-1.27-6.637-1.27c-1.202,0-2.308,0.26-3.318,0.777
			c-1.011,0.521-1.516,1.353-1.516,2.5c0,0.874,0.354,1.516,1.065,1.926c0.709,0.409,1.665,0.725,2.867,0.941l0.574,0.164
			l5.08,1.146c5.134,1.147,9.148,3.143,12.044,5.982c2.895,2.84,4.343,6.746,4.343,11.717c0,3.551-0.737,6.718-2.212,9.504
			c-1.476,2.785-3.497,5.107-6.063,6.965c-2.568,1.857-5.449,3.25-8.645,4.178c-3.195,0.929-6.486,1.394-9.873,1.394
			c-3.879,0-7.947-0.506-12.208-1.517c-4.261-1.01-8.111-2.389-11.553-4.137L587.198,248.027z"/>
		<path d="M587.198,497.078l1.147,0.902c2.239,1.748,4.533,3.127,6.883,4.137c2.348,1.012,4.724,1.516,7.128,1.516
			c1.365,0,2.663-0.299,3.893-0.9c1.229-0.601,1.843-1.529,1.843-2.786c0-1.092-0.383-1.856-1.146-2.294
			c-0.766-0.437-1.831-0.791-3.195-1.065l-0.656-0.081l-4.506-0.82c-4.753-0.818-8.632-2.607-11.635-5.367
			c-3.005-2.757-4.507-6.432-4.507-11.02c0-3.551,0.737-6.746,2.213-9.586c1.475-2.84,3.481-5.258,6.021-7.252
			c2.54-1.993,5.421-3.494,8.645-4.506c3.223-1.01,6.526-1.516,9.914-1.516c7.155,0,13.683,1.803,19.582,5.407l-6.063,15.813
			c-2.131-1.42-4.261-2.553-6.392-3.4c-2.13-0.846-4.342-1.27-6.637-1.27c-1.202,0-2.308,0.26-3.318,0.777
			c-1.011,0.521-1.516,1.353-1.516,2.5c0,0.874,0.354,1.516,1.065,1.926c0.709,0.409,1.665,0.725,2.867,0.941l0.574,0.164
			l5.08,1.146c5.134,1.147,9.148,3.143,12.044,5.982c2.895,2.84,4.343,6.746,4.343,11.717c0,3.551-0.737,6.718-2.212,9.504
			c-1.476,2.785-3.497,5.107-6.063,6.965c-2.568,1.857-5.449,3.25-8.645,4.178c-3.195,0.929-6.486,1.394-9.873,1.394
			c-3.879,0-7.947-0.506-12.208-1.517c-4.261-1.01-8.111-2.389-11.553-4.137L587.198,497.078z"/>
		<path d="M398.495,208.371l-23.926,61.779H355.56l-23.925-61.779h23.434l8.193,28.104c1.037,3.496,1.557,6.555,1.557,9.178h0.492
			c0-2.623,0.519-5.682,1.557-9.178l8.193-28.104H398.495z"/>
		<path d="M354.659,394.467h-23.761l21.467-61.779h24.826l22.04,61.779h-23.761l-2.049-7.701h-16.96L354.659,394.467z
			 M369.489,372.099l-2.622-10.897c-0.383-1.639-0.848-4.179-1.393-7.62l-0.082-0.327h-0.819l-4.097,18.845H369.489z"/>
		<path d="M464.681,332.688h22.45v41.951h18.845v19.828h-41.295V332.688z"/>
		<path d="M474.104,208.371h22.45v61.779h-22.45V208.371z"/>
		<path d="M456.734,582.209h21.549l20.156,34.249h0.655l-0.163-0.819c-0.547-3.223-0.971-5.968-1.271-8.234
			c-0.301-2.267-0.45-4.492-0.45-6.678v-18.518h21.467v61.779H497.21l-19.747-32.446h-0.655c0.929,5.354,1.393,9.478,1.393,12.372
			v20.074h-21.467V582.209z"/>
		<path d="M335.323,457.422h22.859c5.353,0,10.242,0.602,14.667,1.803c4.424,1.202,8.275,3.087,11.553,5.654s5.83,5.886,7.66,9.955
			s2.745,8.862,2.745,14.379c0,4.535-0.751,8.658-2.253,12.372c-1.503,3.716-3.646,6.883-6.432,9.505
			c-2.786,2.621-6.092,4.629-9.914,6.021c-3.824,1.394-7.977,2.09-12.455,2.09h-28.431V457.422z M357.773,500.684h1.393
			c3.933,0,7.114-0.955,9.546-2.867c2.43-1.912,3.646-4.807,3.646-8.686c0-4.205-1.146-7.318-3.441-9.34
			c-2.294-2.021-5.544-3.032-9.75-3.032h-1.393V500.684z"/>
		<path d="M397.783,607.61v0.573c-0.109,6.338-0.573,11.362-1.393,15.076c-0.819,3.715-2.841,7.292-6.063,10.733
			c-3.224,3.497-7.169,6.2-11.839,8.112c-4.671,1.91-9.464,2.867-14.38,2.867c-4.752,0-9.191-0.711-13.314-2.131
			c-4.125-1.42-7.743-3.494-10.856-6.227c-3.113-2.73-5.545-6.049-7.292-9.955c-1.749-3.904-2.622-8.289-2.622-13.15
			c0-4.916,0.86-9.382,2.581-13.396c1.721-4.016,4.138-7.428,7.251-10.242c3.113-2.813,6.745-4.957,10.897-6.432
			c4.15-1.475,8.657-2.213,13.52-2.213c2.73,0,5.625,0.342,8.685,1.025c3.059,0.684,6.009,1.693,8.85,3.031
			c2.839,1.339,5.394,3.019,7.66,5.039c2.267,2.021,3.975,4.289,5.121,6.801l-20.976,7.701c-0.819-1.528-1.98-2.703-3.481-3.523
			c-1.503-0.818-3.183-1.229-5.039-1.229c-3.824,0-6.856,1.406-9.095,4.22c-2.241,2.813-3.359,6.187-3.359,10.118
			c0,3.605,1.051,6.707,3.154,9.301c2.102,2.594,4.902,3.891,8.398,3.891c1.966,0,3.851-0.463,5.653-1.393
			c1.803-0.928,2.949-2.266,3.441-4.015h-10.16V607.61H397.783z"/>
		<path d="M273.396,332.196v36.543c0,8.74-2.526,15.295-7.578,19.664c-5.054,4.371-12.059,6.556-21.017,6.556
			c-8.959,0-15.965-2.185-21.017-6.556c-5.053-4.369-7.579-10.924-7.579-19.664v-36.543h22.45v34.413
			c0,1.53,0.054,2.786,0.164,3.769c0.109,0.983,0.354,1.885,0.737,2.704c0.382,0.819,0.996,1.462,1.844,1.926
			c0.847,0.464,1.979,0.696,3.4,0.696c1.42,0,2.553-0.232,3.4-0.696c0.846-0.464,1.475-1.106,1.885-1.926
			c0.409-0.819,0.655-1.721,0.737-2.704c0.082-0.982,0.122-2.238,0.122-3.769v-34.413H273.396z"/>
		<circle cx="244.801" cy="255.978" r="14.173"/>
		<circle cx="605.593" cy="380.543" r="14.173"/>
		<circle cx="605.593" cy="629.815" r="14.173"/>
		<circle cx="244.801" cy="505.203" r="14.173"/>
		<path d="M464.23,457.423h41.541v16.878h-18.927v5.899h17.288v16.059h-17.288v6.063h19.583v16.878H464.23V457.423z"/>
		<path d="M234.201,582.21h22.45v61.779h-22.45V582.21z"/>
	</g>
</g>
</svg>
