<?xml version="1.0" encoding="utf-8"?>
<!-- Generator: Adobe Illustrator 23.0.2, SVG Export Plug-In . SVG Version: 6.00 Build 0)  -->
<svg version="1.1" xmlns="http://www.w3.org/2000/svg" xmlns:xlink="http://www.w3.org/1999/xlink" x="0px" y="0px"
	 viewBox="0 0 850.394 850.394" style="enable-background:new 0 0 850.394 850.394;" xml:space="preserve">
<style type="text/css">
	.st0{fill:none;stroke:#000000;stroke-width:25;stroke-miterlimit:10;}
</style>
<g id="Construction">
</g>
<g id="Layer_1">
	<g>
	</g>
	<rect x="124.537" y="124.537" class="st0" width="601.319" height="601.319"/>
	<g>
		<path d="M583.401,457.423h41.541v16.878h-18.927v5.899h17.288v16.06h-17.288v6.063h19.583v16.878h-42.197V457.423z"/>
	</g>
	<g>
		<path d="M456.734,208.372h28.432c7.538,0,13.601,1.939,18.189,5.817c4.588,3.879,6.883,9.504,6.883,16.878
			c0,6.282-1.831,11.267-5.49,14.953c-3.66,3.688-8.631,5.531-14.912,5.531h-11.471v18.599h-21.631V208.372z M478.364,235.983h2.212
			c1.147,0,2.185-0.067,3.113-0.204c0.929-0.136,1.774-0.396,2.54-0.778c0.765-0.382,1.379-0.955,1.844-1.721
			c0.464-0.765,0.696-1.748,0.696-2.95c0-1.146-0.245-2.075-0.737-2.785c-0.491-0.71-1.134-1.229-1.925-1.558
			c-0.793-0.327-1.639-0.532-2.54-0.614s-1.926-0.123-3.073-0.123h-2.13V235.983z"/>
	</g>
	<g>
		<path d="M346.67,248.028l1.147,0.901c2.239,1.749,4.533,3.127,6.883,4.138c2.348,1.011,4.724,1.516,7.128,1.516
			c1.365,0,2.663-0.3,3.893-0.901c1.229-0.601,1.843-1.528,1.843-2.786c0-1.092-0.383-1.855-1.146-2.294
			c-0.766-0.437-1.831-0.791-3.195-1.065l-0.656-0.081l-4.506-0.819c-4.753-0.819-8.632-2.608-11.635-5.367
			c-3.005-2.758-4.507-6.432-4.507-11.021c0-3.55,0.737-6.745,2.213-9.586c1.475-2.84,3.481-5.257,6.021-7.251
			s5.421-3.495,8.645-4.507c3.223-1.01,6.526-1.516,9.914-1.516c7.155,0,13.683,1.803,19.582,5.407l-6.063,15.813
			c-2.131-1.42-4.261-2.553-6.392-3.4c-2.13-0.846-4.342-1.27-6.637-1.27c-1.202,0-2.308,0.26-3.318,0.778
			c-1.011,0.52-1.516,1.352-1.516,2.499c0,0.874,0.354,1.516,1.065,1.926c0.709,0.409,1.665,0.725,2.867,0.941l0.574,0.164
			l5.08,1.147c5.134,1.146,9.148,3.142,12.044,5.981c2.895,2.841,4.343,6.746,4.343,11.717c0,3.551-0.737,6.718-2.212,9.504
			c-1.476,2.786-3.497,5.108-6.063,6.965c-2.568,1.857-5.449,3.25-8.645,4.179c-3.195,0.928-6.486,1.393-9.873,1.393
			c-3.879,0-7.947-0.506-12.208-1.516s-8.111-2.389-11.553-4.138L346.67,248.028z"/>
	</g>
	<g>
		<path d="M344.171,332.938h41.541v16.878h-18.927v5.899h17.288v16.06h-17.288v6.063h19.583v16.878h-42.197V332.938z"/>
	</g>
	<g>
		<path d="M466.934,372.345l1.147,0.901c2.239,1.749,4.533,3.127,6.883,4.138c2.348,1.011,4.724,1.516,7.128,1.516
			c1.365,0,2.663-0.3,3.893-0.901c1.229-0.601,1.843-1.528,1.843-2.786c0-1.092-0.383-1.855-1.146-2.294
			c-0.766-0.437-1.831-0.791-3.195-1.065l-0.656-0.081l-4.506-0.819c-4.753-0.819-8.632-2.608-11.635-5.367
			c-3.005-2.758-4.507-6.432-4.507-11.021c0-3.55,0.737-6.745,2.213-9.586c1.475-2.84,3.481-5.257,6.021-7.251
			s5.421-3.495,8.645-4.507c3.223-1.01,6.526-1.516,9.914-1.516c7.155,0,13.683,1.803,19.582,5.407l-6.063,15.813
			c-2.131-1.42-4.261-2.553-6.392-3.4c-2.13-0.846-4.342-1.27-6.637-1.27c-1.202,0-2.308,0.26-3.318,0.778
			c-1.011,0.52-1.516,1.352-1.516,2.499c0,0.874,0.354,1.516,1.065,1.926c0.709,0.409,1.665,0.725,2.867,0.941l0.574,0.164
			l5.08,1.147c5.134,1.146,9.148,3.142,12.044,5.981c2.895,2.841,4.343,6.746,4.343,11.717c0,3.551-0.737,6.718-2.212,9.504
			c-1.476,2.786-3.497,5.108-6.063,6.965c-2.568,1.857-5.449,3.25-8.645,4.179c-3.195,0.928-6.486,1.393-9.873,1.393
			c-3.879,0-7.947-0.506-12.208-1.516s-8.111-2.389-11.553-4.138L466.934,372.345z"/>
	</g>
	<g>
		<path d="M218.469,582.21h27.12c3.605,0,6.95,0.396,10.037,1.188c3.086,0.793,5.804,2.049,8.152,3.77s4.191,3.961,5.531,6.719
			c1.338,2.759,2.007,6.021,2.007,9.791c0,4.534-0.915,7.988-2.744,10.364c-1.831,2.376-4.903,4.275-9.218,5.694v0.492l0.327,0.246
			c1.529,1.202,2.676,2.349,3.441,3.44l13.438,20.074h-25.892l-9.832-19.828h-0.41v19.828h-21.958V582.21z M240.427,609.576h1.558
			c2.294,0,4.097-0.341,5.407-1.024c1.312-0.683,1.967-2.062,1.967-4.138c0-2.131-0.629-3.55-1.885-4.261
			c-1.257-0.709-3.031-1.065-5.326-1.065h-1.721V609.576z"/>
	</g>
	<g>
		<path d="M595.187,270.15h-23.761l21.467-61.778h24.826l22.04,61.778h-23.761l-2.049-7.701h-16.96L595.187,270.15z
			 M610.017,247.782l-2.622-10.897c-0.383-1.639-0.848-4.179-1.393-7.62l-0.082-0.327h-0.819l-4.097,18.845H610.017z"/>
	</g>
	<g>
		<path d="M461.676,457.423h47.193v20.073l-12.371-0.573v42.278h-22.451v-42.278l-12.371,0.573V457.423z"/>
	</g>
	<g>
		<path d="M498.465,583.479c4.15,1.503,7.811,3.674,10.979,6.514c3.168,2.841,5.625,6.241,7.373,10.201
			c1.748,3.961,2.623,8.316,2.623,13.068c0,4.808-0.875,9.191-2.623,13.15c-1.748,3.962-4.191,7.32-7.332,10.078
			c-3.143,2.759-6.787,4.862-10.939,6.31c-4.15,1.446-8.576,2.171-13.273,2.171s-9.121-0.725-13.273-2.171
			c-4.15-1.447-7.797-3.551-10.938-6.31c-3.143-2.758-5.586-6.116-7.334-10.078c-1.748-3.959-2.621-8.343-2.621-13.15
			c0-4.752,0.887-9.107,2.662-13.068c1.775-3.96,4.221-7.36,7.334-10.201c3.113-2.84,6.76-5.011,10.938-6.514
			c4.18-1.502,8.59-2.253,13.232-2.253S494.312,581.977,498.465,583.479z M476.916,605.028c-2.131,2.322-3.197,5.176-3.197,8.563
			c0,3.496,1.078,6.35,3.236,8.563c2.158,2.212,4.93,3.318,8.316,3.318s6.158-1.106,8.316-3.318
			c2.158-2.213,3.238-5.066,3.238-8.563c0-3.387-1.066-6.24-3.197-8.563c-2.129-2.321-4.916-3.482-8.357-3.482
			C481.832,601.546,479.045,602.707,476.916,605.028z"/>
	</g>
	<g>
		<path d="M579.045,582.21h27.12c3.605,0,6.95,0.396,10.037,1.188c3.086,0.793,5.804,2.049,8.152,3.77s4.191,3.961,5.531,6.719
			c1.338,2.759,2.007,6.021,2.007,9.791c0,4.534-0.915,7.988-2.744,10.364c-1.831,2.376-4.903,4.275-9.218,5.694v0.492l0.327,0.246
			c1.529,1.202,2.676,2.349,3.441,3.44l13.438,20.074h-25.892l-9.832-19.828h-0.41v19.828h-21.958V582.21z M601.003,609.576h1.558
			c2.294,0,4.097-0.341,5.407-1.024c1.312-0.683,1.967-2.062,1.967-4.138c0-2.131-0.629-3.55-1.885-4.261
			c-1.257-0.709-3.031-1.065-5.326-1.065h-1.721V609.576z"/>
	</g>
	<g>
		<path d="M233.421,457.423h22.45v61.778h-22.45V457.423z"/>
	</g>
	<g>
		<path d="M353.84,582.21h22.45v61.778h-22.45V582.21z"/>
	</g>
	<g>
		<path d="M268.808,357.76c-2.021-1.856-4.138-3.359-6.351-4.507c-2.212-1.146-4.493-1.721-6.841-1.721
			c-3.388,0-6.269,1.176-8.645,3.523c-2.376,2.35-3.564,5.19-3.564,8.521c0,1.693,0.328,3.265,0.983,4.711
			c0.655,1.448,1.569,2.732,2.745,3.852c1.174,1.12,2.525,1.98,4.056,2.581c1.528,0.602,3.113,0.9,4.752,0.9
			c2.458,0,4.738-0.491,6.842-1.475c2.103-0.983,4.109-2.402,6.022-4.261l-0.655,23.106c-0.819,0.383-1.926,0.737-3.318,1.064
			c-1.394,0.328-2.827,0.587-4.302,0.778s-2.95,0.341-4.425,0.451c-1.475,0.108-2.786,0.164-3.933,0.164
			c-4.315,0-8.398-0.793-12.249-2.377c-3.852-1.583-7.211-3.81-10.078-6.678c-2.868-2.867-5.095-6.213-6.678-10.036
			c-1.585-3.823-2.376-7.894-2.376-12.209c0-4.424,0.819-8.616,2.458-12.577c1.639-3.959,3.945-7.428,6.923-10.405
			c2.977-2.977,6.433-5.298,10.365-6.965c3.933-1.665,8.111-2.499,12.536-2.499c5.134,0,10.159,0.848,15.076,2.54L268.808,357.76z"
			/>
	</g>
	<g>
		<path d="M336.889,457.422h21.549l20.156,34.249h0.655l-0.163-0.819c-0.547-3.223-0.971-5.968-1.271-8.234
			c-0.301-2.267-0.45-4.492-0.45-6.678v-18.518h21.467v61.779h-21.467l-19.747-32.446h-0.655c0.929,5.354,1.393,9.478,1.393,12.372
			v20.074h-21.467V457.422z"/>
	</g>
	<circle cx="605.593" cy="380.543" r="14.173"/>
	<circle cx="244.801" cy="255.978" r="14.173"/>
</g>
</svg>
