<svg id="Objects" xmlns="http://www.w3.org/2000/svg" viewBox="0 0 70 70"><defs><style>.cls-1{fill:#1d1d1b;}.cls-2{fill:none;stroke:#1d1d1b;stroke-miterlimit:10;stroke-width:2px;}</style></defs><path class="cls-1" d="M47.93,17.5H50a4.38,4.38,0,0,1,.75.06,2,2,0,0,1,.61.21,1.13,1.13,0,0,1,.44.43,1.31,1.31,0,0,1,.16.69,1.2,1.2,0,0,1-.17.62.84.84,0,0,1-.49.38v0a1.34,1.34,0,0,1,.66.45,1.15,1.15,0,0,1,.23.74,1.29,1.29,0,0,1-.15.64,1.44,1.44,0,0,1-.42.43,1.93,1.93,0,0,1-.59.24,2.93,2.93,0,0,1-.67.07H47.93Zm1.85,1.92a.94.94,0,0,0,.41-.07q.15-.06.15-.3a.28.28,0,0,0-.14-.28,1.3,1.3,0,0,0-.46-.06h-.13v.71Zm-.17,1.89h.48l.22-.05a.37.37,0,0,0,.17-.13.33.33,0,0,0,.07-.23.32.32,0,0,0-.07-.23.35.35,0,0,0-.18-.13.85.85,0,0,0-.23,0h-.46Z"/><path class="cls-1" d="M28,17.5l.63,3h0a6.05,6.05,0,0,1,.15-.92l.53-2.06h1.39l.69,3h0a6.47,6.47,0,0,1,.12-.88l.51-2.1h1.89l-1.77,5H30.59L30,19.78H30v.09a3.74,3.74,0,0,1-.09.67l-.5,2H27.81l-1.75-5Z"/><path class="cls-1" d="M38.29,17.5h3.36v1.37H40.12v.47h1.4v1.3h-1.4v.49h1.59V22.5H38.29Z"/><rect class="cls-2" x="10" y="10" width="50" height="50"/><path class="cls-1" d="M42.25,27.5v2.94a2,2,0,0,1-.6,1.58,3,3,0,0,1-3.38,0,2,2,0,0,1-.61-1.58V27.5H39.5v2.77a2.63,2.63,0,0,0,0,.3.79.79,0,0,0,.06.22.28.28,0,0,0,.15.15.68.68,0,0,0,.56,0,.28.28,0,0,0,.15-.15.79.79,0,0,0,.06-.22,2.63,2.63,0,0,0,0-.3V27.5Z"/><path class="cls-1" d="M22.3,47.5v2.94A2,2,0,0,1,21.69,52a2.52,2.52,0,0,1-1.69.53A2.52,2.52,0,0,1,18.31,52a2,2,0,0,1-.61-1.58V47.5h1.84v2.77c0,.12,0,.22,0,.3a.79.79,0,0,0,.06.22.43.43,0,0,0,.15.15A.58.58,0,0,0,20,51a.55.55,0,0,0,.28-.06.31.31,0,0,0,.15-.15.43.43,0,0,0,.06-.22,2.63,2.63,0,0,0,0-.3V47.5Z"/><circle class="cls-1" cx="20" cy="21.55" r="1"/><circle class="cls-1" cx="20" cy="31.55" r="1"/><circle class="cls-1" cx="30" cy="31.55" r="1"/><circle class="cls-1" cx="50" cy="51.55" r="1"/><circle class="cls-1" cx="40" cy="51.55" r="1"/><path class="cls-1" d="M48.29,37.5h3.36v1.37H50.12v.47h1.4v1.3h-1.4v.49h1.59V42.5H48.29Z"/><path class="cls-1" d="M37.59,37.5h1.85a4.4,4.4,0,0,1,1.19.15,2.65,2.65,0,0,1,.94.45,2.07,2.07,0,0,1,.61.81,2.79,2.79,0,0,1,.23,1.16,2.48,2.48,0,0,1-.19,1,2.06,2.06,0,0,1-.52.77,2.11,2.11,0,0,1-.8.49,3,3,0,0,1-1,.17h-2.3ZM39.41,41h.11a1.27,1.27,0,0,0,.78-.23.86.86,0,0,0,.29-.7,1,1,0,0,0-.28-.76,1.17,1.17,0,0,0-.79-.25h-.11Z"/><path class="cls-1" d="M29.09,47.5h1.82v5H29.09Z"/><path class="cls-1" d="M52.56,27.5,51,29.84l1.78,2.66H50.71l-.57-1.06a1,1,0,0,1-.1-.31H50a1.28,1.28,0,0,1-.14.35l-.55,1H47.22L49,29.84,47.4,27.5h2.05l.37.71a2,2,0,0,1,.15.41h0a2.25,2.25,0,0,1,.16-.41l.34-.71Z"/><path class="cls-1" d="M31.06,37.63a2.55,2.55,0,0,1,.87.52,2.3,2.3,0,0,1,.59.82,2.51,2.51,0,0,1,.21,1,2.61,2.61,0,0,1-.21,1.06,2.32,2.32,0,0,1-.58.8,2.75,2.75,0,0,1-.88.51,3.39,3.39,0,0,1-2.12,0,2.75,2.75,0,0,1-.88-.51,2.32,2.32,0,0,1-.58-.8A2.61,2.61,0,0,1,27.27,40a2.51,2.51,0,0,1,.21-1,2.42,2.42,0,0,1,.59-.82,2.55,2.55,0,0,1,.87-.52,3.21,3.21,0,0,1,2.12,0Zm-1.73,1.72a1,1,0,0,0-.25.69.92.92,0,0,0,.25.68,1,1,0,0,0,1.34,0,.92.92,0,0,0,.25-.68,1,1,0,0,0-.25-.69,1,1,0,0,0-1.34,0Z"/><path class="cls-1" d="M21.55,39.53a4,4,0,0,0-.51-.36,1.2,1.2,0,0,0-.55-.13.94.94,0,0,0-.69.28.92.92,0,0,0-.29.68,1,1,0,0,0,.08.38,1.1,1.1,0,0,0,.22.31,1.21,1.21,0,0,0,.33.2,1,1,0,0,0,.38.07,1.37,1.37,0,0,0,.54-.11,1.93,1.93,0,0,0,.49-.35l-.06,1.85-.26.09c-.11,0-.23.05-.35.06l-.35,0h-.31a2.45,2.45,0,0,1-1-.19,2.47,2.47,0,0,1-.81-.53,2.5,2.5,0,0,1-.54-.81,2.61,2.61,0,0,1,0-2,2.48,2.48,0,0,1,.56-.83,2.44,2.44,0,0,1,.82-.56,2.64,2.64,0,0,1,1-.2,3.78,3.78,0,0,1,1.2.2Z"/></svg>