<svg id="Objects" xmlns="http://www.w3.org/2000/svg" viewBox="0 0 70 70"><defs><style>.cls-1{fill:#1d1d1b;}.cls-2{fill:none;stroke:#1d1d1b;stroke-miterlimit:10;stroke-width:2px;}</style></defs><path class="cls-1" d="M39.09,17.5h1.82v5H39.09Z"/><path class="cls-1" d="M27.42,17.5h1.87L30,20.13H30v0c0-.29.09-.49.12-.63l.57-2h1.85l.82,5H31.63l-.24-2.74h0v0a2.81,2.81,0,0,1-.12.47l-.72,2.24H29.45l-.65-2.12a3.13,3.13,0,0,1-.11-.62h-.06v0c0,.27,0,.46-.05.57l-.21,2.14H26.61Z"/><path class="cls-1" d="M22.3,47.5v2.94A2,2,0,0,1,21.69,52a2.52,2.52,0,0,1-1.69.53A2.52,2.52,0,0,1,18.31,52a2,2,0,0,1-.61-1.58V47.5h1.84v2.77c0,.12,0,.22,0,.3a.79.79,0,0,0,.06.22.36.36,0,0,0,.15.15A.58.58,0,0,0,20,51a.55.55,0,0,0,.28-.06.28.28,0,0,0,.15-.15.43.43,0,0,0,.06-.22,2.63,2.63,0,0,0,0-.3V47.5Z"/><path class="cls-1" d="M38.29,37.5h3.36v1.37H40.12v.47h1.4v1.3h-1.4v.49h1.59V42.5H38.29Z"/><path class="cls-1" d="M28.29,27.5h3.36v1.37H30.12v.47h1.4v1.3h-1.4v.49h1.59V32.5H28.29Z"/><path class="cls-1" d="M27.49,37.5h1.75l1.63,2.77h.05v-.06c-.05-.27-.08-.49-.1-.67a3.27,3.27,0,0,1,0-.54V37.5h1.74v5H30.77l-1.6-2.63h-.05a7,7,0,0,1,.11,1V42.5H27.49Z"/><path class="cls-1" d="M51.06,37.63a2.55,2.55,0,0,1,.87.52,2.3,2.3,0,0,1,.59.82,2.51,2.51,0,0,1,.21,1,2.61,2.61,0,0,1-.21,1.06,2.32,2.32,0,0,1-.58.8,2.75,2.75,0,0,1-.88.51,3.39,3.39,0,0,1-2.12,0,2.75,2.75,0,0,1-.88-.51,2.32,2.32,0,0,1-.58-.8A2.61,2.61,0,0,1,47.27,40a2.51,2.51,0,0,1,.21-1,2.42,2.42,0,0,1,.59-.82,2.55,2.55,0,0,1,.87-.52,3.21,3.21,0,0,1,2.12,0Zm-1.73,1.72a1,1,0,0,0-.25.69.92.92,0,0,0,.25.68,1,1,0,0,0,1.34,0,.92.92,0,0,0,.25-.68,1,1,0,0,0-.25-.69,1,1,0,0,0-1.34,0Z"/><path class="cls-1" d="M48.53,20.7l.09.07a2.43,2.43,0,0,0,.55.33,1.31,1.31,0,0,0,.57.13.68.68,0,0,0,.31-.08.22.22,0,0,0,.15-.22.18.18,0,0,0-.09-.18.71.71,0,0,0-.26-.09H49.8l-.36-.07a1.83,1.83,0,0,1-.93-.43,1.13,1.13,0,0,1-.36-.88,1.62,1.62,0,0,1,.18-.77,1.58,1.58,0,0,1,.48-.58,2.06,2.06,0,0,1,.69-.36,2.66,2.66,0,0,1,.79-.12,2.94,2.94,0,0,1,1.57.43l-.49,1.27a2.1,2.1,0,0,0-.51-.27,1.4,1.4,0,0,0-.53-.11.46.46,0,0,0-.26.07.2.2,0,0,0-.13.2.16.16,0,0,0,.09.15.87.87,0,0,0,.23.08h0l.41.09a1.9,1.9,0,0,1,1,.48,1.23,1.23,0,0,1,.35.94,1.73,1.73,0,0,1-.17.76,1.52,1.52,0,0,1-.49.55,2.47,2.47,0,0,1-.69.34,3,3,0,0,1-.79.11,4.3,4.3,0,0,1-1-.12A4,4,0,0,1,48,22.1Z"/><path class="cls-1" d="M28.53,50.7l.09.07a2.43,2.43,0,0,0,.55.33,1.31,1.31,0,0,0,.57.13.68.68,0,0,0,.31-.08.22.22,0,0,0,.15-.22.18.18,0,0,0-.09-.18.71.71,0,0,0-.26-.09H29.8l-.36-.07a1.83,1.83,0,0,1-.93-.43,1.13,1.13,0,0,1-.36-.88,1.62,1.62,0,0,1,.18-.77,1.58,1.58,0,0,1,.48-.58,2.06,2.06,0,0,1,.69-.36,2.66,2.66,0,0,1,.79-.12,2.94,2.94,0,0,1,1.57.43l-.49,1.27a2.1,2.1,0,0,0-.51-.27,1.4,1.4,0,0,0-.53-.11.46.46,0,0,0-.26.07.2.2,0,0,0-.13.2.16.16,0,0,0,.09.15.87.87,0,0,0,.23.08h0l.41.09a1.9,1.9,0,0,1,1,.48,1.23,1.23,0,0,1,.35.94,1.73,1.73,0,0,1-.17.76,1.52,1.52,0,0,1-.49.55,2.47,2.47,0,0,1-.69.34,3,3,0,0,1-.79.11,4.3,4.3,0,0,1-1-.12A4,4,0,0,1,28,52.1Z"/><path class="cls-1" d="M38.53,50.7l.09.07a2.43,2.43,0,0,0,.55.33,1.31,1.31,0,0,0,.57.13.68.68,0,0,0,.31-.08.22.22,0,0,0,.15-.22.18.18,0,0,0-.09-.18.71.71,0,0,0-.26-.09H39.8l-.36-.07a1.83,1.83,0,0,1-.93-.43,1.13,1.13,0,0,1-.36-.88,1.62,1.62,0,0,1,.18-.77,1.58,1.58,0,0,1,.48-.58,2.06,2.06,0,0,1,.69-.36,2.66,2.66,0,0,1,.79-.12,2.94,2.94,0,0,1,1.57.43l-.49,1.27a2.1,2.1,0,0,0-.51-.27,1.4,1.4,0,0,0-.53-.11.46.46,0,0,0-.26.07.2.2,0,0,0-.13.2.16.16,0,0,0,.09.15.87.87,0,0,0,.23.08h0l.41.09a1.9,1.9,0,0,1,1,.48,1.23,1.23,0,0,1,.35.94,1.73,1.73,0,0,1-.17.76,1.52,1.52,0,0,1-.49.55,2.47,2.47,0,0,1-.69.34,3,3,0,0,1-.79.11,4.3,4.3,0,0,1-1-.12A4,4,0,0,1,38,52.1Z"/><path class="cls-1" d="M21.5,29.58a3,3,0,0,0-.51-.36,1.2,1.2,0,0,0-.55-.13.94.94,0,0,0-.69.28.92.92,0,0,0-.29.68,1,1,0,0,0,.08.38,1.34,1.34,0,0,0,.22.31,1.38,1.38,0,0,0,.33.2,1,1,0,0,0,.38.07A1.46,1.46,0,0,0,21,30.9a2.08,2.08,0,0,0,.48-.35l-.06,1.85-.26.09-.34.06-.36,0h-.31a2.45,2.45,0,0,1-1-.19,2.47,2.47,0,0,1-.81-.53,2.32,2.32,0,0,1-.53-.81,2.43,2.43,0,0,1-.19-1,2.63,2.63,0,0,1,.19-1,2.48,2.48,0,0,1,.56-.83,2.39,2.39,0,0,1,.83-.56,2.55,2.55,0,0,1,1-.2,3.78,3.78,0,0,1,1.2.2Z"/><rect class="cls-2" x="10" y="10" width="50" height="50"/><circle class="cls-1" cx="20.01" cy="21.55" r="1"/><circle class="cls-1" cx="54.71" cy="21.55" r="1"/><circle class="cls-1" cx="50" cy="51.55" r="1"/><path class="cls-1" d="M38.18,27.5H40v3.4h1.52v1.6H38.18Z"/><path class="cls-1" d="M48.2,27.5H50v3.4h1.52v1.6H48.2Z"/><path class="cls-1" d="M19.16,42.5H17.24l1.74-5h2l1.78,5H20.85l-.17-.62H19.31Zm1.2-1.81-.21-.88c0-.13-.07-.34-.11-.62v0H20l-.33,1.53Z"/></svg>