<svg width="129" height="128" viewBox="0 0 129 128" fill="none" xmlns="http://www.w3.org/2000/svg">
<path d="M128.667 128H0.666687V0H128.646V127.98L128.667 128ZM5.77524 122.891H123.538V5.10856H5.77524V122.871V122.891Z" fill="white"/>
<path d="M97.7703 27.7293L97.9951 27.9132C98.4446 28.2606 98.9146 28.5466 99.405 28.751C99.875 28.9553 100.365 29.0575 100.856 29.0575C101.346 29.0575 101.408 28.9962 101.653 28.8736C101.898 28.751 102.021 28.5671 102.021 28.3014C102.021 28.0358 101.939 27.9132 101.796 27.8314C101.632 27.7497 101.428 27.668 101.142 27.6067H100.999L100.079 27.4227C99.0985 27.2593 98.322 26.8915 97.709 26.3193C97.096 25.7471 96.7895 25.0115 96.7895 24.0715C96.7895 23.1316 96.9325 22.7024 97.239 22.1098C97.5455 21.5377 97.9542 21.0268 98.4651 20.6181C98.9759 20.2095 99.5685 19.9029 100.222 19.6986C100.876 19.4943 101.551 19.3921 102.245 19.3921C103.717 19.3921 105.045 19.7599 106.251 20.4955L105.004 23.7242C104.575 23.4381 104.125 23.1929 103.696 23.0294C103.267 22.8659 102.818 22.7637 102.348 22.7637C101.878 22.7637 101.878 22.825 101.673 22.9272C101.469 23.0294 101.367 23.2133 101.367 23.4381C101.367 23.6628 101.448 23.7446 101.592 23.8263C101.735 23.9081 101.939 23.9694 102.184 24.0102L102.307 24.0511L103.349 24.2759C104.391 24.5007 105.208 24.9093 105.801 25.5019C106.394 26.0741 106.68 26.871 106.68 27.8927C106.68 28.9144 106.537 29.2618 106.23 29.834C105.924 30.4061 105.515 30.8761 104.984 31.2644C104.452 31.6526 103.88 31.9183 103.226 32.1226C102.572 32.327 101.898 32.4087 101.203 32.4087C100.508 32.4087 99.5889 32.3065 98.7103 32.1022C97.8316 31.8979 97.0551 31.6118 96.3399 31.2644L97.7499 27.6884L97.7703 27.7293Z" fill="white"/>
<path d="M96.1965 70.6208H101.734C102.47 70.6208 103.165 70.7025 103.778 70.866C104.411 71.0295 104.963 71.2747 105.453 71.6425C105.944 72.0103 106.311 72.4599 106.577 73.0116C106.843 73.5837 106.986 74.2376 106.986 75.0141C106.986 75.7906 106.802 76.6489 106.434 77.1393C106.066 77.6297 105.433 78.018 104.554 78.304V78.4062L104.615 78.4471C104.922 78.6923 105.167 78.9171 105.31 79.1418L108.048 83.2491H102.756L100.753 79.2032H100.672V83.2491H96.1761V70.6208H96.1965ZM100.692 76.2198H101.019C101.489 76.2198 101.857 76.1585 102.122 76.0154C102.388 75.8724 102.531 75.5863 102.531 75.1776C102.531 74.7689 102.409 74.4624 102.143 74.2989C101.877 74.1559 101.53 74.0742 101.06 74.0742H100.712V76.2198H100.692Z" fill="white"/>
<path d="M50.2606 32.2452H45.3972L49.7906 19.6168H54.8583L59.3538 32.2452H54.4905L54.0818 30.6718H50.6079L50.2401 32.2452H50.2606ZM53.2848 27.6884L52.7535 25.461C52.6718 25.1341 52.5901 24.6028 52.4675 23.908V23.8467H52.2836L51.4458 27.6884H53.2848Z" fill="white"/>
<path d="M50.2606 57.788H45.3972L49.7906 45.1597H54.8583L59.3538 57.788H54.4905L54.0818 56.2146H50.6079L50.2401 57.788H50.2606ZM53.2848 53.2108L52.7535 50.9834C52.6718 50.6565 52.5901 50.1252 52.4675 49.4304V49.3691H52.2836L51.4458 53.2108H53.2848Z" fill="white"/>
<path d="M46.5618 70.6208H50.9756V74.8711H53.7955V70.6208H58.2093V83.2491H53.7955V78.8558H50.9756V83.2491H46.5618V70.6208Z" fill="white"/>
<path d="M46.0508 96.0817H50.4442L54.5719 103.07H54.7149L54.6741 102.907C54.5719 102.253 54.4697 101.681 54.4084 101.231C54.3471 100.761 54.3063 100.312 54.3063 99.8621V96.0817H58.6996V108.71H54.3063L50.2807 102.089H50.1377C50.3216 103.193 50.4238 104.031 50.4238 104.623V108.731H46.0304V96.1022L46.0508 96.0817Z" fill="white"/>
<path d="M71.1037 19.6168H75.5788L75.4766 25.0932H75.5788C75.6401 24.7867 75.8036 24.378 76.1101 23.8467L76.2122 23.6628L78.4191 19.6168H83.4255L79.4817 25.7675L83.8546 32.2452H78.5213L76.3348 28.424C76.2735 28.3218 76.1918 28.1788 76.0692 27.9949C75.7831 27.5453 75.6196 27.1979 75.5583 26.9527H75.4562L75.5583 32.2452H71.0833V19.6168H71.1037Z" fill="white"/>
<path d="M75.4767 45.1597L76.8866 48.4496H77.0297L77.1114 48.1635C77.2545 47.7548 77.3771 47.4483 77.4384 47.2644L78.3375 45.1597H83.4869L79.1753 52.3321V57.7676H74.6797V52.3321L70.2864 45.1597H75.4767Z" fill="white"/>
<path d="M82.792 70.6208V78.0793C82.792 79.8571 82.2812 81.2057 81.239 82.1048C80.1969 83.0039 78.7665 83.4535 76.9478 83.4535C75.1292 83.4535 73.6783 83.0039 72.6566 82.1048C71.6145 81.2057 71.1036 79.8775 71.1036 78.0793V70.6208H75.7013V77.6502C75.7013 77.9567 75.7013 78.2223 75.7422 78.4267C75.7626 78.631 75.8239 78.8149 75.8852 78.9784C75.967 79.1419 76.0896 79.2849 76.2531 79.3666C76.4165 79.4688 76.6617 79.5097 76.9478 79.5097C77.2339 79.5097 77.4791 79.4688 77.6426 79.3666C77.8061 79.2645 77.9491 79.1419 78.0308 78.9784C78.1126 78.8149 78.1739 78.631 78.1739 78.4267C78.1739 78.2223 78.1943 77.9771 78.1943 77.6502V70.6208H82.792Z" fill="white"/>
<path d="M74.8225 108.71H69.9591L74.3525 96.0817H79.4202L83.9157 108.71H79.0523L78.6437 107.137H75.1698L74.802 108.71H74.8225ZM77.8672 104.133L77.3359 101.905C77.2541 101.579 77.1724 101.047 77.0498 100.352V100.291H76.8659L76.0281 104.133H77.8672Z" fill="white"/>
<path d="M22.0411 70.6208H26.5162L26.414 76.0971H26.5162C26.5775 75.7906 26.7409 75.3819 27.0474 74.8507L27.1496 74.6668L29.3565 70.6208H34.3629L30.4191 76.7715L34.792 83.2491H29.4587L27.2722 79.4279C27.2109 79.3258 27.1292 79.1827 27.0066 78.9988C26.7205 78.5493 26.557 78.2019 26.4957 77.9567H26.3936L26.4957 83.2491H22.0206V70.6208H22.0411Z" fill="white"/>
<path d="M22.0614 45.1597H26.4752V49.41H29.2951V45.1597H33.7089V57.788H29.2951V53.3947H26.4752V57.788H22.0614V45.1597Z" fill="white"/>
<path d="M25.678 108.71H20.8147L25.2081 96.0817H30.2757L34.7713 108.71H29.9079L29.4992 107.137H26.0254L25.6576 108.71H25.678ZM28.7023 104.133L28.171 101.905C28.0893 101.579 28.0075 101.047 27.8849 100.352V100.291H27.701L26.8632 104.133H28.7023Z" fill="white"/>
<path d="M27.8032 32.3269C29.4057 32.3269 30.7048 31.0278 30.7048 29.4253C30.7048 27.8227 29.4057 26.5236 27.8032 26.5236C26.2006 26.5236 24.9015 27.8227 24.9015 29.4253C24.9015 31.0278 26.2006 32.3269 27.8032 32.3269Z" fill="white"/>
<path d="M101.53 57.788C103.132 57.788 104.432 56.4889 104.432 54.8864C104.432 53.2838 103.132 51.9847 101.53 51.9847C99.9273 51.9847 98.6282 53.2838 98.6282 54.8864C98.6282 56.4889 99.9273 57.788 101.53 57.788Z" fill="white"/>
<path d="M101.53 108.71C103.132 108.71 104.432 107.411 104.432 105.809C104.432 104.206 103.132 102.907 101.53 102.907C99.9273 102.907 98.6282 104.206 98.6282 105.809C98.6282 107.411 99.9273 108.71 101.53 108.71Z" fill="white"/>
</svg>
