<svg id="Objects" xmlns="http://www.w3.org/2000/svg" viewBox="0 0 70 70"><defs><style>.cls-1{fill:#1d1d1b;}.cls-2{fill:none;stroke:#1d1d1b;stroke-miterlimit:10;stroke-width:2px;}</style></defs><path class="cls-1" d="M48.29,37.5h3.36v1.37H50.12v.47h1.4v1.3h-1.4v.49h1.59V42.5H48.29Z"/><path class="cls-1" d="M38.25,17.5h2.3A2.22,2.22,0,0,1,42,18a1.69,1.69,0,0,1,.56,1.37,1.63,1.63,0,0,1-.45,1.21,1.59,1.59,0,0,1-1.2.44H40V22.5H38.25ZM40,19.73h.43a.73.73,0,0,0,.21-.06.38.38,0,0,0,.14-.14.48.48,0,0,0,.06-.24.39.39,0,0,0-.06-.23.29.29,0,0,0-.15-.12.54.54,0,0,0-.21-.05H40Z"/><path class="cls-1" d="M28.29,27.5h3.36v1.37H30.12v.47h1.4v1.3h-1.4v.49h1.59V32.5H28.29Z"/><path class="cls-1" d="M17.66,47.5h2.19a3,3,0,0,1,.81.1,1.81,1.81,0,0,1,.66.3,1.48,1.48,0,0,1,.45.54,1.81,1.81,0,0,1,.16.8,1.38,1.38,0,0,1-.22.84,1.58,1.58,0,0,1-.75.46v0l0,0a1.06,1.06,0,0,1,.28.28l1.09,1.62h-2.1l-.79-1.6h0v1.6H17.66Zm1.77,2.21h.13a.94.94,0,0,0,.44-.08.34.34,0,0,0,.16-.33A.37.37,0,0,0,20,49a.84.84,0,0,0-.43-.08h-.14Z"/><path class="cls-1" d="M49.16,22.5H47.23l1.74-5h2l1.79,5H50.84l-.16-.62H49.3Zm1.2-1.81-.21-.88c0-.13-.07-.34-.12-.62v0H50l-.33,1.53Z"/><path class="cls-1" d="M38.09,37.5h3.82v1.62l-1,0V42.5H39.09V39.08l-1,0Z"/><path class="cls-1" d="M47.65,47.5h2.19a3,3,0,0,1,.82.1,1.81,1.81,0,0,1,.66.3,1.37,1.37,0,0,1,.44.54,1.81,1.81,0,0,1,.17.8,1.38,1.38,0,0,1-.23.84,1.5,1.5,0,0,1-.74.46v0l0,0a1.06,1.06,0,0,1,.28.28l1.09,1.62H50.26l-.8-1.6h0v1.6H47.65Zm1.78,2.21h.12a.91.91,0,0,0,.44-.08c.11-.05.16-.16.16-.33A.37.37,0,0,0,50,49a.89.89,0,0,0-.43-.08h-.14Z"/><path class="cls-1" d="M19.09,37.5h1.82v5H19.09Z"/><path class="cls-1" d="M29.09,47.5h1.82v5H29.09Z"/><path class="cls-1" d="M27.49,37.5h1.75l1.63,2.77h.05v-.06c-.05-.27-.08-.49-.1-.67a3.27,3.27,0,0,1,0-.54V37.5h1.74v5H30.77l-1.6-2.63h-.05a7,7,0,0,1,.11,1V42.5H27.49Z"/><path class="cls-1" d="M41.05,47.63a2.5,2.5,0,0,1,.88.52,2.3,2.3,0,0,1,.59.82,2.51,2.51,0,0,1,.21,1,2.61,2.61,0,0,1-.21,1.06,2.32,2.32,0,0,1-.58.8,2.86,2.86,0,0,1-.88.51,3.36,3.36,0,0,1-1.06.17,3.32,3.32,0,0,1-1.06-.17,2.75,2.75,0,0,1-.88-.51,2.32,2.32,0,0,1-.58-.8A2.61,2.61,0,0,1,37.27,50a2.51,2.51,0,0,1,.21-1,2.42,2.42,0,0,1,.59-.82,2.46,2.46,0,0,1,.87-.52A3.11,3.11,0,0,1,40,47.45,3,3,0,0,1,41.05,47.63Zm-1.72,1.72a1,1,0,0,0-.26.69.93.93,0,0,0,.26.68A.9.9,0,0,0,40,51a.87.87,0,0,0,.66-.27.89.89,0,0,0,.26-.68,1,1,0,0,0-.25-.69.89.89,0,0,0-.67-.27A.87.87,0,0,0,39.33,49.35Z"/><path class="cls-1" d="M28.53,20.7l.09.07a2.43,2.43,0,0,0,.55.33,1.31,1.31,0,0,0,.57.13.68.68,0,0,0,.31-.08.22.22,0,0,0,.15-.22.18.18,0,0,0-.09-.18.71.71,0,0,0-.26-.09H29.8l-.36-.07a1.83,1.83,0,0,1-.93-.43,1.13,1.13,0,0,1-.36-.88,1.62,1.62,0,0,1,.18-.77,1.58,1.58,0,0,1,.48-.58,2.06,2.06,0,0,1,.69-.36,2.66,2.66,0,0,1,.79-.12,2.94,2.94,0,0,1,1.57.43l-.49,1.27a2.1,2.1,0,0,0-.51-.27,1.4,1.4,0,0,0-.53-.11.46.46,0,0,0-.26.07.2.2,0,0,0-.13.2.16.16,0,0,0,.09.15.87.87,0,0,0,.23.08h0l.41.09a1.9,1.9,0,0,1,1,.48,1.23,1.23,0,0,1,.35.94,1.73,1.73,0,0,1-.17.76,1.52,1.52,0,0,1-.49.55,2.47,2.47,0,0,1-.69.34,3,3,0,0,1-.79.11,4.3,4.3,0,0,1-1-.12A4,4,0,0,1,28,22.1Z"/><path class="cls-1" d="M38.53,30.75l.09.07a2.43,2.43,0,0,0,.55.33,1.31,1.31,0,0,0,.57.13.68.68,0,0,0,.31-.08A.22.22,0,0,0,40.2,31a.18.18,0,0,0-.09-.18.71.71,0,0,0-.26-.09H39.8l-.36-.07a1.83,1.83,0,0,1-.93-.43,1.13,1.13,0,0,1-.36-.88,1.74,1.74,0,0,1,.17-.77,1.71,1.71,0,0,1,.49-.58,2.06,2.06,0,0,1,.69-.36,2.66,2.66,0,0,1,.79-.12,2.94,2.94,0,0,1,1.57.43l-.49,1.27a2.1,2.1,0,0,0-.51-.27,1.4,1.4,0,0,0-.53-.11.52.52,0,0,0-.27.07.2.2,0,0,0-.12.2.16.16,0,0,0,.09.15.87.87,0,0,0,.23.08h0l.41.09a1.9,1.9,0,0,1,1,.48,1.23,1.23,0,0,1,.35.94,1.61,1.61,0,0,1-.18.76,1.5,1.5,0,0,1-.48.55,2.47,2.47,0,0,1-.69.34,3,3,0,0,1-.79.11,4.3,4.3,0,0,1-1-.12,4,4,0,0,1-.92-.33Z"/><path class="cls-1" d="M21.5,29.58a3,3,0,0,0-.51-.36,1.2,1.2,0,0,0-.55-.13.94.94,0,0,0-.69.28.92.92,0,0,0-.29.68,1,1,0,0,0,.08.38,1.34,1.34,0,0,0,.22.31,1.38,1.38,0,0,0,.33.2,1,1,0,0,0,.38.07A1.46,1.46,0,0,0,21,30.9a2.08,2.08,0,0,0,.48-.35l-.06,1.85-.26.09-.34.06-.36,0h-.31a2.45,2.45,0,0,1-1-.19,2.47,2.47,0,0,1-.81-.53,2.32,2.32,0,0,1-.53-.81,2.43,2.43,0,0,1-.19-1,2.63,2.63,0,0,1,.19-1,2.48,2.48,0,0,1,.56-.83,2.39,2.39,0,0,1,.83-.56,2.55,2.55,0,0,1,1-.2,3.78,3.78,0,0,1,1.2.2Z"/><rect class="cls-2" x="10" y="10" width="50" height="50"/><circle class="cls-1" cx="50" cy="31.55" r="1"/><circle class="cls-1" cx="20.01" cy="21.55" r="1"/></svg>