<svg id="Objects" xmlns="http://www.w3.org/2000/svg" viewBox="0 0 50 50"><defs><style>.cls-1{fill:none;stroke:#1d1d1b;stroke-miterlimit:10;stroke-width:2px;}.cls-2{fill:#1d1d1b;}</style></defs><rect class="cls-1" x="10" y="10" width="30" height="30"/><path class="cls-2" d="M29,22.5H27l1.74-5h2l1.78,5h-2l-.15-.58H29.15Zm1.14-1.83L30,19.8c0-.13-.07-.33-.11-.61v0h-.06l-.33,1.5Z"/><path class="cls-2" d="M17.71,27.5h1.77l0,2.17h0a1.54,1.54,0,0,1,.21-.49l0-.08.87-1.6h2L21,29.93l1.73,2.57H20.63L19.77,31l-.11-.17a1.24,1.24,0,0,1-.19-.41h0l0,2.08H17.71Z"/><circle class="cls-2" cx="20" cy="21.55" r="1"/><circle class="cls-2" cx="30" cy="31.55" r="1"/></svg>