<?xml version="1.0" encoding="utf-8"?>
<!-- Generator: Adobe Illustrator 23.0.3, SVG Export Plug-In . SVG Version: 6.00 Build 0)  -->
<svg version="1.1" xmlns="http://www.w3.org/2000/svg" xmlns:xlink="http://www.w3.org/1999/xlink" x="0px" y="0px"
	 viewBox="0 0 850.394 850.394" style="enable-background:new 0 0 850.394 850.394;" xml:space="preserve">
<style type="text/css">
	.st0{fill:none;stroke:#000000;stroke-width:25;stroke-miterlimit:10;}
</style>
<g id="Construction">
</g>
<g id="Layer_1">
	<g>
		<g>
			<path d="M521.961,362.324h-56.508l51.052-146.92h59.041l52.416,146.92h-56.508l-4.871-18.316h-40.335L521.961,362.324z
				 M557.229,309.128l-6.235-25.916c-0.91-3.897-2.016-9.938-3.313-18.122l-0.194-0.78h-1.949l-9.742,44.817H557.229z"/>
		</g>
		<g>
			<path d="M241.159,474.887h52.025l-1.168,63.718h1.168c0.648-3.507,2.729-8.312,6.236-14.419l1.168-2.144l25.721-47.155h58.262
				l-45.984,71.512l50.855,75.409h-61.963l-25.332-44.427c-0.65-1.169-1.689-2.856-3.117-5.066
				c-3.379-5.194-5.328-9.222-5.846-12.081h-1.168l1.168,61.574h-52.025V474.887z"/>
		</g>
		<g>
			<path d="M745.856,745.856H104.537V104.537h641.319V745.856z M144.537,705.856h561.319V144.537H144.537V705.856z"/>
		</g>
		<g>
			<circle cx="301.226" cy="334.91" r="27.413"/>
		</g>
		<g>
			<circle cx="546.706" cy="594.354" r="27.413"/>
		</g>
	</g>
</g>
</svg>
