<?xml version="1.0" encoding="utf-8"?>
<!-- Generator: Adobe Illustrator 23.0.2, SVG Export Plug-In . SVG Version: 6.00 Build 0)  -->
<svg version="1.1" xmlns="http://www.w3.org/2000/svg" xmlns:xlink="http://www.w3.org/1999/xlink" x="0px" y="0px"
	 viewBox="0 0 850.394 850.394" style="enable-background:new 0 0 850.394 850.394;" xml:space="preserve">
<style type="text/css">
	.st0{fill:none;stroke:#000000;stroke-width:25;stroke-miterlimit:10;}
</style>
<g id="Construction">
</g>
<g id="Layer_1">
	<rect x="124.537" y="124.537" class="st0" width="601.319" height="601.319"/>
	<g>
		<path d="M463.741,457.423h41.541v16.878h-18.927v5.899h17.288v16.06h-17.288v6.063h19.583v16.878h-42.197V457.423z"/>
	</g>
	<g>
		<path d="M344.171,332.938h41.541v16.878h-18.927v5.899h17.288v16.06h-17.288v6.063h19.583v16.878h-42.197V332.938z"/>
	</g>
	<g>
		<path d="M268.808,357.76c-2.021-1.856-4.138-3.359-6.351-4.507c-2.212-1.146-4.493-1.721-6.841-1.721
			c-3.388,0-6.269,1.176-8.645,3.523c-2.376,2.35-3.564,5.19-3.564,8.521c0,1.693,0.328,3.265,0.983,4.711
			c0.655,1.448,1.569,2.732,2.745,3.852c1.174,1.12,2.525,1.98,4.056,2.581c1.528,0.602,3.113,0.9,4.752,0.9
			c2.458,0,4.738-0.491,6.842-1.475c2.103-0.983,4.109-2.402,6.022-4.261l-0.655,23.106c-0.819,0.383-1.926,0.737-3.318,1.064
			c-1.394,0.328-2.827,0.587-4.302,0.778s-2.95,0.341-4.425,0.451c-1.475,0.108-2.786,0.164-3.933,0.164
			c-4.315,0-8.398-0.793-12.249-2.377c-3.852-1.583-7.211-3.81-10.078-6.678c-2.868-2.867-5.095-6.213-6.678-10.036
			c-1.585-3.823-2.376-7.894-2.376-12.209c0-4.424,0.819-8.616,2.458-12.577c1.639-3.959,3.945-7.428,6.923-10.405
			c2.977-2.977,6.433-5.298,10.365-6.965c3.933-1.665,8.111-2.499,12.536-2.499c5.134,0,10.159,0.848,15.076,2.54L268.808,357.76z"
			/>
	</g>
	<g>
		<path d="M336.889,457.422h21.549l20.156,34.249h0.655l-0.163-0.819c-0.547-3.223-0.971-5.968-1.271-8.234
			c-0.301-2.267-0.45-4.492-0.45-6.678v-18.518h21.467v61.779h-21.467l-19.747-32.446h-0.655c0.929,5.354,1.393,9.478,1.393,12.372
			v20.074h-21.467V457.422z"/>
	</g>
	<g>
	</g>
	<circle cx="244.801" cy="255.978" r="14.173"/>
	<circle cx="485.329" cy="629.815" r="14.173"/>
	<circle cx="605.469" cy="629.815" r="14.173"/>
	<g>
		<path d="M618.661,458.693c4.15,1.503,7.811,3.674,10.979,6.514c3.168,2.841,5.626,6.241,7.374,10.201
			c1.748,3.961,2.622,8.316,2.622,13.068c0,4.808-0.874,9.191-2.622,13.15c-1.748,3.962-4.192,7.32-7.333,10.078
			c-3.142,2.759-6.787,4.862-10.938,6.31c-4.151,1.446-8.576,2.171-13.273,2.171c-4.698,0-9.122-0.725-13.273-2.171
			c-4.151-1.447-7.798-3.551-10.938-6.31c-3.143-2.758-5.586-6.116-7.334-10.078c-1.748-3.959-2.621-8.343-2.621-13.15
			c0-4.752,0.887-9.107,2.662-13.068c1.774-3.96,4.22-7.36,7.334-10.201c3.113-2.84,6.759-5.011,10.938-6.514
			c4.179-1.502,8.59-2.253,13.232-2.253S614.509,457.191,618.661,458.693z M597.112,480.241c-2.131,2.322-3.196,5.176-3.196,8.563
			c0,3.496,1.078,6.35,3.236,8.563c2.157,2.212,4.93,3.318,8.316,3.318s6.158-1.106,8.316-3.318
			c2.157-2.213,3.237-5.066,3.237-8.563c0-3.387-1.065-6.24-3.196-8.563c-2.13-2.321-4.916-3.482-8.357-3.482
			C602.028,476.759,599.242,477.92,597.112,480.241z"/>
	</g>
	<g>
		<path d="M473.615,208.372h22.45v61.778h-22.45V208.372z"/>
	</g>
	<g>
		<path d="M333.192,208.372h23.105l8.521,32.446h0.573l0.082-0.492c0.546-3.495,1.037-6.063,1.475-7.702l6.965-24.252h22.859
			l10.16,61.778h-21.713l-3.031-33.839h-0.41l-0.081,0.328c-0.492,2.621-0.957,4.562-1.394,5.817l-8.931,27.693h-13.109
			l-8.03-26.137c-0.819-3.223-1.283-5.789-1.393-7.702h-0.737v0.409c-0.219,3.278-0.41,5.627-0.573,7.047l-2.622,26.383h-21.713
			L333.192,208.372z"/>
	</g>
	<g>
		<path d="M464.681,332.938h22.45v41.95h18.845v19.828h-41.295V332.938z"/>
	</g>
	<g>
		<path d="M584.945,332.688h22.45v41.95h18.845v19.828h-41.295V332.688z"/>
	</g>
	<g>
		<path d="M587.198,248.028l1.146,0.901c2.24,1.749,4.533,3.127,6.883,4.138c2.348,1.011,4.725,1.516,7.129,1.516
			c1.365,0,2.662-0.3,3.893-0.901c1.229-0.601,1.842-1.528,1.842-2.786c0-1.092-0.383-1.855-1.146-2.294
			c-0.766-0.437-1.83-0.791-3.195-1.065l-0.656-0.081l-4.506-0.819c-4.752-0.819-8.631-2.608-11.635-5.367
			c-3.004-2.758-4.506-6.432-4.506-11.021c0-3.55,0.736-6.745,2.213-9.586c1.475-2.84,3.48-5.257,6.021-7.251
			c2.539-1.994,5.42-3.495,8.645-4.507c3.223-1.01,6.525-1.516,9.914-1.516c7.154,0,13.682,1.803,19.582,5.407l-6.063,15.813
			c-2.131-1.42-4.262-2.553-6.393-3.4c-2.129-0.846-4.342-1.27-6.637-1.27c-1.201,0-2.307,0.26-3.318,0.778
			c-1.01,0.52-1.516,1.352-1.516,2.499c0,0.874,0.355,1.516,1.066,1.926c0.709,0.409,1.664,0.725,2.867,0.941l0.574,0.164
			l5.08,1.147c5.133,1.146,9.148,3.142,12.043,5.981c2.895,2.841,4.344,6.746,4.344,11.717c0,3.551-0.738,6.718-2.213,9.504
			s-3.496,5.108-6.063,6.965c-2.568,1.857-5.449,3.25-8.645,4.179c-3.195,0.928-6.486,1.393-9.873,1.393
			c-3.879,0-7.947-0.506-12.209-1.516c-4.26-1.01-8.111-2.389-11.553-4.138L587.198,248.028z"/>
	</g>
	<g>
		<path d="M234.395,519.201h-23.761l21.467-61.778h24.826l22.04,61.778h-23.761l-2.049-7.701h-16.96L234.395,519.201z
			 M249.225,496.833l-2.622-10.897c-0.383-1.639-0.848-4.179-1.393-7.62l-0.082-0.327h-0.819l-4.097,18.845H249.225z"/>
	</g>
	<g>
		<path d="M273.314,582.21v36.543c0,8.74-2.526,15.295-7.578,19.664c-5.054,4.371-12.059,6.555-21.017,6.555
			c-8.959,0-15.965-2.184-21.017-6.555c-5.053-4.369-7.579-10.924-7.579-19.664V582.21h22.45v34.413c0,1.53,0.054,2.786,0.164,3.769
			c0.109,0.983,0.354,1.884,0.737,2.704c0.382,0.819,0.996,1.462,1.844,1.926c0.847,0.464,1.979,0.696,3.4,0.696
			c1.42,0,2.553-0.232,3.4-0.696c0.846-0.463,1.475-1.106,1.885-1.926c0.409-0.819,0.655-1.721,0.737-2.704
			c0.082-0.983,0.122-2.239,0.122-3.769V582.21H273.314z"/>
	</g>
	<g>
		<path d="M346.629,621.866l1.147,0.901c2.239,1.749,4.533,3.127,6.883,4.138c2.348,1.011,4.724,1.516,7.128,1.516
			c1.365,0,2.663-0.299,3.893-0.901c1.229-0.601,1.843-1.529,1.843-2.786c0-1.092-0.383-1.856-1.146-2.294
			c-0.766-0.437-1.831-0.791-3.195-1.065l-0.656-0.082l-4.506-0.819c-4.753-0.819-8.632-2.608-11.635-5.367
			c-3.005-2.757-4.507-6.432-4.507-11.02c0-3.55,0.737-6.746,2.213-9.586c1.475-2.839,3.481-5.257,6.021-7.251
			c2.54-1.994,5.421-3.495,8.645-4.507c3.223-1.01,6.526-1.516,9.914-1.516c7.155,0,13.683,1.803,19.582,5.408l-6.063,15.813
			c-2.131-1.42-4.261-2.553-6.392-3.4c-2.13-0.846-4.342-1.27-6.637-1.27c-1.202,0-2.308,0.26-3.318,0.778
			c-1.011,0.52-1.516,1.352-1.516,2.499c0,0.875,0.354,1.516,1.065,1.926c0.709,0.41,1.665,0.725,2.867,0.942l0.574,0.164
			l5.08,1.147c5.134,1.147,9.148,3.142,12.044,5.981c2.895,2.841,4.343,6.747,4.343,11.717c0,3.551-0.737,6.718-2.212,9.504
			c-1.476,2.786-3.497,5.108-6.063,6.964c-2.568,1.857-5.449,3.25-8.645,4.179s-6.486,1.393-9.873,1.393
			c-3.879,0-7.947-0.506-12.208-1.516c-4.261-1.01-8.111-2.389-11.553-4.138L346.629,621.866z"/>
	</g>
</g>
</svg>
