<?xml version="1.0" encoding="utf-8"?>
<!-- Generator: Adobe Illustrator 23.0.2, SVG Export Plug-In . SVG Version: 6.00 Build 0)  -->
<svg version="1.1" xmlns="http://www.w3.org/2000/svg" xmlns:xlink="http://www.w3.org/1999/xlink" x="0px" y="0px"
	 viewBox="0 0 850.394 850.394" style="enable-background:new 0 0 850.394 850.394;" xml:space="preserve">
<style type="text/css">
	.st0{fill:none;stroke:#000000;stroke-width:25;stroke-miterlimit:10;}
</style>
<g id="Construction">
</g>
<g id="Layer_1">
	<g>
	</g>
	<rect x="124.537" y="124.537" class="st0" width="601.319" height="601.319"/>
	<g>
		<path d="M579.996,208.372h26.138c3.331,0,6.391,0.246,9.177,0.737c2.785,0.492,5.312,1.352,7.578,2.581s4.069,2.99,5.408,5.285
			c1.338,2.294,2.008,5.135,2.008,8.521c0,2.841-0.711,5.422-2.131,7.743c-1.421,2.322-3.414,3.892-5.981,4.711v0.492
			c3.495,1.202,6.199,3.046,8.112,5.531c1.911,2.486,2.867,5.531,2.867,9.136c0,3.06-0.643,5.682-1.926,7.866
			c-1.283,2.186-3.004,3.961-5.161,5.326c-2.159,1.366-4.576,2.349-7.252,2.95c-2.677,0.602-5.436,0.901-8.275,0.901h-30.562
			V208.372z M602.857,232.133c2.13,0,3.822-0.287,5.079-0.86c1.257-0.574,1.885-1.815,1.885-3.728c0-1.803-0.602-2.963-1.803-3.482
			c-1.202-0.519-3.086-0.778-5.653-0.778h-1.557v8.849H602.857z M600.808,255.402h2.54c1.311,0,2.43-0.041,3.359-0.123
			c0.928-0.082,1.829-0.287,2.704-0.615c0.873-0.328,1.583-0.846,2.13-1.557c0.546-0.709,0.819-1.666,0.819-2.868
			c0-1.201-0.273-2.157-0.819-2.868c-0.547-0.709-1.284-1.215-2.212-1.516c-0.93-0.299-1.885-0.491-2.868-0.573
			s-2.13-0.123-3.441-0.123h-2.212V255.402z"/>
		<path d="M339.706,208.372l7.784,36.871h0.491c0.546-4.861,1.174-8.657,1.885-11.389l6.555-25.481h17.206l8.439,36.871h0.492
			c0.437-4.588,0.955-8.22,1.557-10.897l6.227-25.973h23.352l-21.795,61.779h-19.582l-7.047-33.593h-0.737l-0.082,1.065
			c-0.273,3.715-0.628,6.473-1.064,8.275l-6.228,24.253h-19.091l-21.631-61.779H339.706z"/>
		<path d="M463.927,208.372h41.541v16.878h-18.927v5.899h17.288v16.059h-17.288v6.063h19.583v16.878h-42.197V208.372z"/>
		<path d="M513.924,332.938v36.543c0,8.74-2.526,15.295-7.578,19.664c-5.054,4.371-12.059,6.555-21.017,6.555
			c-8.959,0-15.965-2.184-21.017-6.555c-5.053-4.369-7.579-10.924-7.579-19.664v-36.543h22.45v34.413
			c0,1.53,0.054,2.786,0.164,3.769c0.109,0.983,0.354,1.884,0.737,2.704c0.382,0.819,0.996,1.462,1.844,1.926
			c0.847,0.464,1.979,0.696,3.4,0.696c1.42,0,2.553-0.232,3.4-0.696c0.846-0.463,1.475-1.106,1.885-1.926
			c0.409-0.819,0.655-1.721,0.737-2.704c0.082-0.983,0.122-2.239,0.122-3.769v-34.413H513.924z"/>
		<circle cx="244.801" cy="255.978" r="14.173"/>
		<circle cx="244.801" cy="380.543" r="14.173"/>
		<circle cx="365.065" cy="380.543" r="14.173"/>
		<circle cx="605.593" cy="629.815" r="14.173"/>
		<circle cx="485.329" cy="629.815" r="14.173"/>
		<g>
			<path d="M584.215,457.423h41.541v16.878H606.83v5.899h17.288v16.059H606.83v6.063h19.583v16.878h-42.197V457.423z"/>
		</g>
		<g>
			<path d="M378.257,458.693c4.15,1.503,7.811,3.674,10.979,6.514c3.168,2.841,5.626,6.241,7.374,10.201
				c1.748,3.961,2.622,8.316,2.622,13.069c0,4.807-0.874,9.191-2.622,13.15c-1.748,3.961-4.192,7.32-7.333,10.078
				c-3.142,2.759-6.787,4.862-10.938,6.309s-8.576,2.171-13.273,2.171c-4.698,0-9.122-0.725-13.273-2.171s-7.798-3.55-10.938-6.309
				c-3.143-2.758-5.586-6.117-7.334-10.078c-1.748-3.959-2.621-8.343-2.621-13.15c0-4.752,0.887-9.107,2.662-13.069
				c1.774-3.959,4.22-7.36,7.334-10.201c3.113-2.84,6.759-5.011,10.938-6.514c4.179-1.502,8.59-2.253,13.232-2.253
				S374.104,457.191,378.257,458.693z M356.708,480.242c-2.131,2.322-3.196,5.176-3.196,8.562c0,3.497,1.078,6.35,3.236,8.563
				c2.157,2.212,4.93,3.318,8.316,3.318s6.158-1.106,8.316-3.318c2.157-2.212,3.237-5.066,3.237-8.563
				c0-3.386-1.065-6.24-3.196-8.562c-2.13-2.321-4.916-3.482-8.357-3.482C361.624,476.759,358.838,477.92,356.708,480.242z"/>
		</g>
		<g>
			<path d="M456.734,457.423h22.859c5.353,0,10.242,0.602,14.667,1.802c4.424,1.202,8.275,3.087,11.553,5.654
				c3.277,2.568,5.83,5.886,7.66,9.955c1.83,4.07,2.745,8.863,2.745,14.379c0,4.535-0.751,8.658-2.253,12.372
				c-1.503,3.715-3.646,6.883-6.432,9.505c-2.786,2.622-6.092,4.629-9.914,6.022c-3.824,1.393-7.977,2.089-12.455,2.089h-28.431
				V457.423z M479.184,500.684h1.393c3.933,0,7.114-0.955,9.546-2.868c2.43-1.911,3.646-4.806,3.646-8.685
				c0-4.206-1.146-7.319-3.441-9.34c-2.294-2.021-5.544-3.032-9.75-3.032h-1.393V500.684z"/>
		</g>
		<g>
			<path d="M268.808,482.495c-2.021-1.856-4.138-3.359-6.351-4.506c-2.212-1.147-4.493-1.721-6.841-1.721
				c-3.388,0-6.269,1.175-8.645,3.523c-2.376,2.349-3.564,5.19-3.564,8.521c0,1.694,0.328,3.265,0.983,4.711
				c0.655,1.448,1.569,2.732,2.745,3.851c1.174,1.12,2.525,1.98,4.056,2.581c1.528,0.602,3.113,0.901,4.752,0.901
				c2.458,0,4.738-0.491,6.842-1.475c2.103-0.983,4.109-2.403,6.022-4.261l-0.655,23.106c-0.819,0.383-1.926,0.737-3.318,1.065
				c-1.394,0.328-2.827,0.586-4.302,0.778c-1.475,0.191-2.95,0.341-4.425,0.451c-1.475,0.109-2.786,0.164-3.933,0.164
				c-4.315,0-8.398-0.792-12.249-2.376c-3.852-1.583-7.211-3.81-10.078-6.678c-2.868-2.868-5.095-6.213-6.678-10.037
				c-1.585-3.823-2.376-7.893-2.376-12.208c0-4.424,0.819-8.616,2.458-12.577c1.639-3.959,3.945-7.428,6.923-10.406
				c2.977-2.977,6.433-5.297,10.365-6.964c3.933-1.666,8.111-2.499,12.536-2.499c5.134,0,10.159,0.848,15.076,2.54L268.808,482.495z
				"/>
		</g>
		<g>
			<path d="M273.396,582.21v36.543c0,8.74-2.526,15.295-7.578,19.664c-5.054,4.371-12.059,6.555-21.017,6.555
				c-8.959,0-15.965-2.184-21.017-6.555c-5.053-4.369-7.579-10.924-7.579-19.664V582.21h22.45v34.413
				c0,1.53,0.054,2.786,0.164,3.769c0.109,0.983,0.354,1.884,0.737,2.704c0.382,0.819,0.996,1.462,1.844,1.926
				c0.847,0.464,1.979,0.696,3.4,0.696c1.42,0,2.553-0.232,3.4-0.696c0.846-0.463,1.475-1.106,1.885-1.926
				c0.409-0.819,0.655-1.721,0.737-2.704c0.082-0.983,0.122-2.239,0.122-3.769V582.21H273.396z"/>
		</g>
		<g>
			<path d="M353.84,582.21h22.45v61.779h-22.45V582.21z"/>
		</g>
		<path d="M637.261,332.938l-19.337,28.923l22.041,32.856H614.4l-7.046-13.109c-0.602-1.147-1.038-2.403-1.312-3.769h-0.655
			c-0.383,1.421-0.956,2.841-1.721,4.26l-6.882,12.618h-25.564l21.631-32.856l-19.418-28.923h25.317l4.589,8.767
			c0.601,1.093,1.229,2.786,1.884,5.08h0.492c0.327-1.419,0.983-3.113,1.967-5.08l4.26-8.767H637.261z"/>
	</g>
</g>
</svg>
