<svg id="Objects" xmlns="http://www.w3.org/2000/svg" viewBox="0 0 70 70"><defs><style>.cls-1{fill:#1d1d1b;}.cls-2{fill:none;stroke:#1d1d1b;stroke-miterlimit:10;stroke-width:2px;}</style></defs><path class="cls-1" d="M32.71,17.5l-1.94,5H29.23l-1.94-5h1.9l.66,2.27a2.57,2.57,0,0,1,.13.75h0a2.57,2.57,0,0,1,.13-.75l.66-2.27Z"/><path class="cls-1" d="M29.16,32.5H27.23l1.74-5h2l1.79,5H30.84l-.16-.62H29.3Zm1.2-1.81-.21-.88c0-.13-.07-.34-.12-.62v0H30l-.33,1.53Z"/><path class="cls-1" d="M38.3,27.5h1.81v3.4h1.53v1.6H38.3Z"/><path class="cls-1" d="M39.06,17.5h1.82v5H39.06Z"/><path class="cls-1" d="M37.5,47.5h1.74l1.63,2.77h.06l0-.06c0-.27-.07-.49-.1-.67a4.89,4.89,0,0,1,0-.54V47.5h1.73v5H40.78l-1.6-2.63h-.06a6,6,0,0,1,.12,1V52.5H37.5Z"/><path class="cls-1" d="M32.71,49.56v0a6.92,6.92,0,0,1-.11,1.2,1.84,1.84,0,0,1-.49.86,2.52,2.52,0,0,1-.94.65,3.1,3.1,0,0,1-1.15.23A3.38,3.38,0,0,1,29,52.38a2.51,2.51,0,0,1-.87-.5,2.23,2.23,0,0,1-.58-.8,2.52,2.52,0,0,1-.21-1A2.65,2.65,0,0,1,27.5,49a2.27,2.27,0,0,1,.58-.82,2.7,2.7,0,0,1,.87-.51A3.14,3.14,0,0,1,30,47.45a3.4,3.4,0,0,1,.69.08,4,4,0,0,1,.71.24,2.9,2.9,0,0,1,.62.41,1.58,1.58,0,0,1,.4.54l-1.67.62a.69.69,0,0,0-.28-.28.79.79,0,0,0-.4-.1.87.87,0,0,0-.73.34,1.23,1.23,0,0,0-.27.8,1.15,1.15,0,0,0,.25.75.81.81,0,0,0,.67.31,1.07,1.07,0,0,0,.46-.11.53.53,0,0,0,.27-.32h-.81V49.56Z"/><rect class="cls-2" x="10" y="10" width="50" height="50"/><path class="cls-1" d="M22.3,27.5v2.94A2,2,0,0,1,21.69,32a2.52,2.52,0,0,1-1.69.53A2.52,2.52,0,0,1,18.31,32a2,2,0,0,1-.61-1.58V27.5h1.84v2.77c0,.12,0,.22,0,.3a.79.79,0,0,0,.06.22.36.36,0,0,0,.15.15A.58.58,0,0,0,20,31a.55.55,0,0,0,.28-.06.28.28,0,0,0,.15-.15.43.43,0,0,0,.06-.22,2.63,2.63,0,0,0,0-.3V27.5Z"/><circle class="cls-1" cx="20" cy="21.55" r="1"/><circle class="cls-1" cx="20" cy="41.55" r="1"/><circle class="cls-1" cx="50" cy="31.55" r="1"/><circle class="cls-1" cx="50" cy="51.55" r="1"/><path class="cls-1" d="M38.3,37.5h3.36v1.37H40.13v.47h1.4v1.3h-1.4v.49h1.58V42.5H38.3Z"/><path class="cls-1" d="M27.59,37.5h1.85a4.4,4.4,0,0,1,1.19.15,2.65,2.65,0,0,1,.94.45,2.07,2.07,0,0,1,.61.81,2.79,2.79,0,0,1,.23,1.16,2.48,2.48,0,0,1-.19,1,2.06,2.06,0,0,1-.52.77,2.11,2.11,0,0,1-.8.49,3,3,0,0,1-1,.17h-2.3ZM29.41,41h.11a1.27,1.27,0,0,0,.78-.23.86.86,0,0,0,.29-.7,1,1,0,0,0-.28-.76,1.17,1.17,0,0,0-.79-.25h-.11Z"/><path class="cls-1" d="M19.09,47.5h1.82v5H19.09Z"/><path class="cls-1" d="M48.53,20.7l.09.07a2.43,2.43,0,0,0,.55.33,1.31,1.31,0,0,0,.57.13.68.68,0,0,0,.31-.08.22.22,0,0,0,.15-.22.18.18,0,0,0-.09-.18.71.71,0,0,0-.26-.09H49.8l-.36-.07a1.83,1.83,0,0,1-.93-.43,1.13,1.13,0,0,1-.36-.88,1.62,1.62,0,0,1,.18-.77,1.58,1.58,0,0,1,.48-.58,2.06,2.06,0,0,1,.69-.36,2.66,2.66,0,0,1,.79-.12,2.94,2.94,0,0,1,1.57.43l-.49,1.27a2.1,2.1,0,0,0-.51-.27,1.4,1.4,0,0,0-.53-.11.46.46,0,0,0-.26.07.2.2,0,0,0-.13.2.16.16,0,0,0,.09.15.87.87,0,0,0,.23.08h0l.41.09a1.9,1.9,0,0,1,1,.48,1.23,1.23,0,0,1,.35.94,1.73,1.73,0,0,1-.17.76,1.52,1.52,0,0,1-.49.55,2.47,2.47,0,0,1-.69.34,3,3,0,0,1-.79.11,4.3,4.3,0,0,1-1-.12A4,4,0,0,1,48,22.1Z"/><path class="cls-1" d="M48.53,40.7l.09.07a2.43,2.43,0,0,0,.55.33,1.31,1.31,0,0,0,.57.13.68.68,0,0,0,.31-.08.22.22,0,0,0,.15-.22.18.18,0,0,0-.09-.18.71.71,0,0,0-.26-.09H49.8l-.36-.07a1.83,1.83,0,0,1-.93-.43,1.13,1.13,0,0,1-.36-.88,1.62,1.62,0,0,1,.18-.77,1.58,1.58,0,0,1,.48-.58,2.06,2.06,0,0,1,.69-.36,2.66,2.66,0,0,1,.79-.12,2.94,2.94,0,0,1,1.57.43l-.49,1.27a2.1,2.1,0,0,0-.51-.27,1.4,1.4,0,0,0-.53-.11.46.46,0,0,0-.26.07.2.2,0,0,0-.13.2.16.16,0,0,0,.09.15.87.87,0,0,0,.23.08h0l.41.09a1.9,1.9,0,0,1,1,.48,1.23,1.23,0,0,1,.35.94,1.73,1.73,0,0,1-.17.76,1.52,1.52,0,0,1-.49.55,2.47,2.47,0,0,1-.69.34,3,3,0,0,1-.79.11,4.3,4.3,0,0,1-1-.12A4,4,0,0,1,48,42.1Z"/></svg>