<?xml version="1.0" encoding="utf-8"?>
<!-- Generator: Adobe Illustrator 23.0.2, SVG Export Plug-In . SVG Version: 6.00 Build 0)  -->
<svg version="1.1" xmlns="http://www.w3.org/2000/svg" xmlns:xlink="http://www.w3.org/1999/xlink" x="0px" y="0px"
	 viewBox="0 0 850.394 850.394" style="enable-background:new 0 0 850.394 850.394;" xml:space="preserve">
<style type="text/css">
	.st0{fill:none;stroke:#000000;stroke-width:25;stroke-miterlimit:10;}
</style>
<g id="Construction">
</g>
<g id="Layer_1">
	<rect x="124.537" y="124.537" class="st0" width="601.319" height="601.319"/>
	<g>
		<path d="M587.198,247.7l1.147,0.901c2.239,1.749,4.533,3.127,6.883,4.138c2.348,1.011,4.724,1.516,7.128,1.516
			c1.365,0,2.663-0.299,3.893-0.901c1.229-0.601,1.843-1.529,1.843-2.786c0-1.092-0.383-1.856-1.146-2.294
			c-0.766-0.437-1.831-0.791-3.195-1.065l-0.656-0.082l-4.506-0.819c-4.753-0.819-8.632-2.608-11.635-5.367
			c-3.005-2.757-4.507-6.432-4.507-11.02c0-3.55,0.737-6.746,2.213-9.586c1.475-2.839,3.481-5.257,6.021-7.251
			c2.54-1.994,5.421-3.495,8.645-4.507c3.223-1.01,6.526-1.516,9.914-1.516c7.155,0,13.683,1.803,19.582,5.408l-6.063,15.813
			c-2.131-1.42-4.261-2.553-6.392-3.4c-2.13-0.846-4.342-1.27-6.637-1.27c-1.202,0-2.308,0.26-3.318,0.778
			c-1.011,0.52-1.516,1.352-1.516,2.499c0,0.875,0.354,1.516,1.065,1.926c0.709,0.41,1.665,0.725,2.867,0.942l0.574,0.164
			l5.08,1.147c5.134,1.147,9.148,3.142,12.044,5.981c2.895,2.841,4.343,6.747,4.343,11.717c0,3.551-0.737,6.718-2.212,9.504
			c-1.476,2.786-3.497,5.108-6.063,6.964c-2.568,1.857-5.449,3.25-8.645,4.179s-6.486,1.393-9.873,1.393
			c-3.879,0-7.947-0.506-12.208-1.516c-4.261-1.01-8.111-2.389-11.553-4.138L587.198,247.7z"/>
		<path d="M579.547,457.597h27.12c3.605,0,6.95,0.396,10.037,1.188c3.086,0.792,5.804,2.048,8.152,3.769s4.191,3.961,5.531,6.719
			c1.338,2.759,2.007,6.022,2.007,9.791c0,4.535-0.915,7.989-2.744,10.365c-1.831,2.376-4.903,4.275-9.218,5.694v0.492l0.327,0.246
			c1.529,1.202,2.676,2.349,3.441,3.441l13.438,20.074h-25.892l-9.832-19.828h-0.41v19.828h-21.958V457.597z M601.505,484.963h1.558
			c2.294,0,4.097-0.341,5.407-1.024c1.312-0.682,1.967-2.061,1.967-4.138c0-2.13-0.629-3.55-1.885-4.261
			c-1.257-0.709-3.031-1.065-5.326-1.065h-1.721V484.963z"/>
		<path d="M354.659,269.823h-23.761l21.467-61.779h24.826l22.04,61.779h-23.761l-2.049-7.702h-16.96L354.659,269.823z
			 M369.489,247.455l-2.622-10.897c-0.383-1.639-0.848-4.179-1.393-7.62l-0.082-0.328h-0.819l-4.097,18.845H369.489z"/>
		<path d="M354.659,394.763h-23.761l21.467-61.779h24.826l22.04,61.779h-23.761l-2.049-7.702h-16.96L354.659,394.763z
			 M369.489,372.395l-2.622-10.897c-0.383-1.639-0.848-4.179-1.393-7.62l-0.082-0.328h-0.819l-4.097,18.845H369.489z"/>
		<path d="M336.552,457.597h21.631v20.812h13.765v-20.812h21.631v61.779h-21.631v-21.467h-13.765v21.467h-21.631V457.597z"/>
		<path d="M334.093,582.21h21.549l20.156,34.249h0.655l-0.163-0.819c-0.547-3.222-0.971-5.967-1.271-8.234
			c-0.301-2.266-0.45-4.492-0.45-6.678V582.21h21.467v61.779H374.57l-19.747-32.446h-0.655c0.929,5.354,1.393,9.478,1.393,12.372
			v20.074h-21.467V582.21z"/>
		<path d="M456.734,208.044h21.876l-0.491,26.792h0.491c0.273-1.475,1.147-3.495,2.622-6.063l0.492-0.901l10.815-19.828h24.498
			l-19.337,30.07l21.386,31.709H493.03l-10.651-18.681c-0.274-0.492-0.711-1.201-1.312-2.13c-1.421-2.184-2.24-3.878-2.458-5.08
			h-0.491l0.491,25.892h-21.876V208.044z"/>
		<path d="M478.102,332.985l6.883,16.141h0.655l0.41-1.393c0.709-2.02,1.256-3.495,1.639-4.424l4.424-10.324h25.236l-21.14,35.15
			v26.629h-21.958v-26.629l-21.549-35.15H478.102z"/>
		<path d="M513.924,457.597v36.543c0,8.74-2.526,15.295-7.578,19.664c-5.054,4.371-12.059,6.555-21.017,6.555
			c-8.959,0-15.965-2.184-21.017-6.555c-5.053-4.369-7.579-10.924-7.579-19.664v-36.543h22.45v34.413
			c0,1.53,0.054,2.786,0.164,3.769c0.109,0.983,0.354,1.884,0.737,2.704c0.382,0.819,0.996,1.462,1.844,1.926
			c0.847,0.464,1.979,0.696,3.4,0.696c1.42,0,2.553-0.232,3.4-0.696c0.846-0.463,1.475-1.106,1.885-1.926
			c0.409-0.819,0.655-1.721,0.737-2.704c0.082-0.983,0.122-2.239,0.122-3.769v-34.413H513.924z"/>
		<path d="M474.923,643.988h-23.761l21.467-61.779h24.826l22.04,61.779h-23.761l-2.049-7.702h-16.96L474.923,643.988z
			 M489.753,621.62l-2.622-10.897c-0.383-1.639-0.848-4.179-1.393-7.62l-0.082-0.328h-0.819l-4.097,18.845H489.753z"/>
		<path d="M216.625,457.597h21.876l-0.491,26.792h0.491c0.273-1.475,1.147-3.495,2.622-6.063l0.492-0.901l10.815-19.828h24.498
			l-19.337,30.07l21.386,31.709h-26.056l-10.651-18.681c-0.274-0.492-0.711-1.201-1.312-2.13c-1.421-2.184-2.24-3.878-2.458-5.08
			h-0.491l0.491,25.892h-21.876V457.597z"/>
		<path d="M216.692,332.985h21.631v20.812h13.765v-20.812h21.631v61.779h-21.631v-21.467h-13.765v21.467h-21.631V332.985z"/>
		<path d="M234.395,643.988h-23.761l21.467-61.779h24.826l22.04,61.779h-23.761l-2.049-7.702h-16.96L234.395,643.988z
			 M249.225,621.62l-2.622-10.897c-0.383-1.639-0.848-4.179-1.393-7.62l-0.082-0.328h-0.819l-4.097,18.845H249.225z"/>
		<circle cx="244.801" cy="255.978" r="14.173"/>
		<circle cx="605.593" cy="380.59" r="14.173"/>
		<circle cx="605.593" cy="629.815" r="14.173"/>
	</g>
</g>
</svg>
