<svg width="128" height="128" viewBox="0 0 128 128" fill="none" xmlns="http://www.w3.org/2000/svg">
<path d="M128 128H0V0H127.98V127.98L128 128ZM5.10856 122.891H122.871V5.10856H5.10856V122.871V122.891Z" fill="white" fill-opacity="0.9"/>
<path d="M97.1036 27.7293L97.3284 27.9132C97.7779 28.2606 98.2479 28.5466 98.7384 28.751C99.2083 28.9553 99.6988 29.0575 100.189 29.0575C100.68 29.0575 100.741 28.9962 100.986 28.8736C101.231 28.751 101.354 28.5671 101.354 28.3014C101.354 28.0358 101.272 27.9132 101.129 27.8314C100.966 27.7497 100.761 27.668 100.475 27.6067H100.332L99.4127 27.4227C98.4318 27.2593 97.6553 26.8915 97.0423 26.3193C96.4293 25.7471 96.1228 25.0115 96.1228 24.0715C96.1228 23.1316 96.2658 22.7024 96.5723 22.1098C96.8788 21.5377 97.2875 21.0268 97.7984 20.6181C98.3092 20.2095 98.9018 19.9029 99.5557 19.6986C100.21 19.4943 100.884 19.3921 101.579 19.3921C103.05 19.3921 104.378 19.7599 105.584 20.4955L104.337 23.7242C103.908 23.4381 103.459 23.1929 103.03 23.0294C102.6 22.8659 102.151 22.7637 101.681 22.7637C101.211 22.7637 101.211 22.825 101.007 22.9272C100.802 23.0294 100.7 23.2133 100.7 23.4381C100.7 23.6628 100.782 23.7446 100.925 23.8263C101.068 23.9081 101.272 23.9694 101.517 24.0102L101.64 24.0511L102.682 24.2759C103.724 24.5007 104.542 24.9093 105.134 25.5019C105.727 26.0741 106.013 26.871 106.013 27.8927C106.013 28.9144 105.87 29.2618 105.563 29.834C105.257 30.4061 104.848 30.8761 104.317 31.2644C103.786 31.6526 103.213 31.9183 102.56 32.1226C101.906 32.327 101.231 32.4087 100.537 32.4087C99.8418 32.4087 98.9223 32.3065 98.0436 32.1022C97.1649 31.8979 96.3884 31.6118 95.6732 31.2644L97.0832 27.6884L97.1036 27.7293Z" fill="white" fill-opacity="0.9"/>
<path d="M95.5298 70.6208H101.067C101.803 70.6208 102.498 70.7025 103.111 70.866C103.744 71.0295 104.296 71.2747 104.786 71.6425C105.277 72.0103 105.645 72.4599 105.91 73.0116C106.176 73.5837 106.319 74.2376 106.319 75.0141C106.319 75.7906 106.135 76.6489 105.767 77.1393C105.399 77.6297 104.766 78.018 103.887 78.304V78.4062L103.949 78.4471C104.255 78.6923 104.5 78.9171 104.643 79.1418L107.382 83.2491H102.089L100.087 79.2032H100.005V83.2491H95.5093V70.6208H95.5298ZM100.025 76.2198H100.352C100.822 76.2198 101.19 76.1585 101.456 76.0154C101.721 75.8724 101.864 75.5863 101.864 75.1776C101.864 74.7689 101.742 74.4624 101.476 74.2989C101.21 74.1559 100.863 74.0742 100.393 74.0742H100.046V76.2198H100.025Z" fill="white" fill-opacity="0.9"/>
<path d="M49.5939 32.2452H44.7305L49.1239 19.6168H54.1916L58.6871 32.2452H53.8237L53.415 30.6718H49.9412L49.5734 32.2452H49.5939ZM52.6181 27.6884L52.0868 25.461C52.0051 25.1341 51.9234 24.6028 51.8007 23.908V23.8467H51.6168L50.779 27.6884H52.6181Z" fill="white" fill-opacity="0.9"/>
<path d="M49.5939 57.788H44.7305L49.1239 45.1597H54.1916L58.6871 57.788H53.8237L53.415 56.2146H49.9412L49.5734 57.788H49.5939ZM52.6181 53.2108L52.0868 50.9834C52.0051 50.6565 51.9234 50.1252 51.8007 49.4304V49.3691H51.6168L50.779 53.2108H52.6181Z" fill="white" fill-opacity="0.9"/>
<path d="M45.8951 70.6208H50.3089V74.8711H53.1288V70.6208H57.5426V83.2491H53.1288V78.8558H50.3089V83.2491H45.8951V70.6208Z" fill="white" fill-opacity="0.9"/>
<path d="M45.3841 96.0817H49.7775L53.9052 103.07H54.0483L54.0074 102.907C53.9052 102.253 53.803 101.681 53.7417 101.231C53.6804 100.761 53.6396 100.312 53.6396 99.8621V96.0817H58.0329V108.71H53.6396L49.614 102.089H49.471C49.6549 103.193 49.7571 104.031 49.7571 104.623V108.731H45.3637V96.1022L45.3841 96.0817Z" fill="white" fill-opacity="0.9"/>
<path d="M70.4369 19.6168H74.912L74.8099 25.0932H74.912C74.9733 24.7867 75.1368 24.378 75.4433 23.8467L75.5455 23.6628L77.7524 19.6168H82.7588L78.815 25.7675L83.1879 32.2452H77.8546L75.6681 28.424C75.6068 28.3218 75.5251 28.1788 75.4025 27.9949C75.1164 27.5453 74.9529 27.1979 74.8916 26.9527H74.7894L74.8916 32.2452H70.4165V19.6168H70.4369Z" fill="white" fill-opacity="0.9"/>
<path d="M74.8099 45.1597L76.2199 48.4496H76.3629L76.4447 48.1635C76.5877 47.7548 76.7103 47.4483 76.7716 47.2644L77.6707 45.1597H82.8201L78.5085 52.3321V57.7676H74.013V52.3321L69.6196 45.1597H74.8099Z" fill="white" fill-opacity="0.9"/>
<path d="M82.1253 70.6208V78.0793C82.1253 79.8571 81.6145 81.2057 80.5723 82.1048C79.5302 83.0039 78.0998 83.4535 76.2811 83.4535C74.4625 83.4535 73.0117 83.0039 71.9899 82.1048C70.9478 81.2057 70.437 79.8775 70.437 78.0793V70.6208H75.0347V77.6502C75.0347 77.9567 75.0347 78.2223 75.0755 78.4267C75.096 78.631 75.1573 78.8149 75.2186 78.9784C75.3003 79.1419 75.4229 79.2849 75.5864 79.3666C75.7498 79.4688 75.9951 79.5097 76.2811 79.5097C76.5672 79.5097 76.8124 79.4688 76.9759 79.3666C77.1394 79.2645 77.2824 79.1419 77.3642 78.9784C77.4459 78.8149 77.5072 78.631 77.5072 78.4267C77.5072 78.2223 77.5276 77.9771 77.5276 77.6502V70.6208H82.1253Z" fill="white" fill-opacity="0.9"/>
<path d="M74.1558 108.71H69.2924L73.6858 96.0817H78.7535L83.249 108.71H78.3857L77.977 107.137H74.5031L74.1353 108.71H74.1558ZM77.2005 104.133L76.6692 101.905C76.5874 101.579 76.5057 101.047 76.3831 100.352V100.291H76.1992L75.3614 104.133H77.2005Z" fill="white" fill-opacity="0.9"/>
<path d="M21.3744 70.6208H25.8495L25.7473 76.0971H25.8495C25.9108 75.7906 26.0742 75.3819 26.3808 74.8507L26.4829 74.6668L28.6898 70.6208H33.6962L29.7524 76.7715L34.1253 83.2491H28.792L26.6055 79.4279C26.5442 79.3258 26.4625 79.1827 26.3399 78.9988C26.0538 78.5493 25.8903 78.2019 25.829 77.9567H25.7269L25.829 83.2491H21.3539V70.6208H21.3744Z" fill="white" fill-opacity="0.9"/>
<path d="M21.3947 45.1597H25.8085V49.41H28.6284V45.1597H33.0422V57.788H28.6284V53.3947H25.8085V57.788H21.3947V45.1597Z" fill="white" fill-opacity="0.9"/>
<path d="M25.0113 108.71H20.1479L24.5413 96.0817H29.609L34.1045 108.71H29.2412L28.8325 107.137H25.3587L24.9909 108.71H25.0113ZM28.0356 104.133L27.5043 101.905C27.4225 101.579 27.3408 101.047 27.2182 100.352V100.291H27.0343L26.1965 104.133H28.0356Z" fill="white" fill-opacity="0.9"/>
<path d="M27.1365 32.3269C28.739 32.3269 30.0381 31.0278 30.0381 29.4253C30.0381 27.8227 28.739 26.5236 27.1365 26.5236C25.5339 26.5236 24.2348 27.8227 24.2348 29.4253C24.2348 31.0278 25.5339 32.3269 27.1365 32.3269Z" fill="white" fill-opacity="0.9"/>
<path d="M100.863 57.788C102.466 57.788 103.765 56.4889 103.765 54.8864C103.765 53.2838 102.466 51.9847 100.863 51.9847C99.2606 51.9847 97.9615 53.2838 97.9615 54.8864C97.9615 56.4889 99.2606 57.788 100.863 57.788Z" fill="white" fill-opacity="0.9"/>
<path d="M100.863 108.71C102.466 108.71 103.765 107.411 103.765 105.809C103.765 104.206 102.466 102.907 100.863 102.907C99.2606 102.907 97.9615 104.206 97.9615 105.809C97.9615 107.411 99.2606 108.71 100.863 108.71Z" fill="white" fill-opacity="0.9"/>
</svg>
