<?xml version="1.0" encoding="utf-8"?>
<!-- Generator: Adobe Illustrator 23.0.2, SVG Export Plug-In . SVG Version: 6.00 Build 0)  -->
<svg version="1.1" xmlns="http://www.w3.org/2000/svg" xmlns:xlink="http://www.w3.org/1999/xlink" x="0px" y="0px"
	 viewBox="0 0 850.394 850.394" style="enable-background:new 0 0 850.394 850.394;" xml:space="preserve">
<style type="text/css">
	.st0{fill:none;stroke:#000000;stroke-width:25;stroke-miterlimit:10;}
</style>
<g id="Construction">
</g>
<g id="Layer_1">
	<g>
	</g>
	<rect x="124.537" y="124.537" class="st0" width="601.319" height="601.319"/>
	<g>
		<g>
			<path d="M575.85,208.371h22.859c5.353,0,10.242,0.602,14.667,1.803c4.424,1.202,8.275,3.087,11.553,5.653
				c3.277,2.568,5.83,5.887,7.66,9.955c1.83,4.07,2.745,8.863,2.745,14.38c0,4.534-0.751,8.658-2.253,12.372
				c-1.503,3.715-3.646,6.883-6.432,9.505c-2.786,2.621-6.092,4.629-9.914,6.021c-3.824,1.394-7.977,2.09-12.455,2.09H575.85
				V208.371z M598.301,251.633h1.393c3.933,0,7.114-0.955,9.546-2.868c2.43-1.911,3.646-4.806,3.646-8.685
				c0-4.206-1.146-7.319-3.441-9.341c-2.294-2.021-5.544-3.031-9.75-3.031h-1.393V251.633z"/>
		</g>
		<g>
			<path d="M336.889,208.371h27.12c3.605,0,6.95,0.396,10.037,1.188c3.086,0.792,5.804,2.048,8.152,3.769s4.191,3.961,5.531,6.719
				c1.338,2.759,2.007,6.022,2.007,9.791c0,4.535-0.915,7.989-2.744,10.365c-1.831,2.376-4.903,4.274-9.218,5.694v0.491l0.327,0.246
				c1.529,1.202,2.676,2.35,3.441,3.441l13.438,20.074h-25.892l-9.832-19.828h-0.41v19.828h-21.958V208.371z M358.847,235.737h1.558
				c2.294,0,4.097-0.341,5.407-1.024c1.312-0.682,1.967-2.061,1.967-4.138c0-2.13-0.629-3.55-1.885-4.261
				c-1.257-0.709-3.031-1.064-5.326-1.064h-1.721V235.737z"/>
		</g>
		<g>
			<path d="M216.736,208.371h28.432c7.538,0,13.601,1.939,18.189,5.817c4.588,3.879,6.883,9.505,6.883,16.879
				c0,6.282-1.831,11.266-5.49,14.953c-3.66,3.687-8.631,5.53-14.912,5.53h-11.471v18.6h-21.631V208.371z M238.367,235.984h2.212
				c1.147,0,2.185-0.068,3.113-0.205c0.929-0.136,1.774-0.396,2.54-0.778c0.765-0.382,1.379-0.955,1.844-1.721
				c0.464-0.765,0.696-1.747,0.696-2.949c0-1.147-0.245-2.075-0.737-2.786c-0.491-0.709-1.134-1.229-1.925-1.557
				c-0.793-0.328-1.639-0.532-2.54-0.614s-1.926-0.123-3.073-0.123h-2.13V235.984z"/>
		</g>
		<g>
			<path d="M498.521,209.642c4.15,1.503,7.811,3.674,10.979,6.514c3.168,2.841,5.626,6.241,7.374,10.2
				c1.748,3.962,2.622,8.316,2.622,13.069c0,4.807-0.874,9.19-2.622,13.15c-1.748,3.961-4.192,7.32-7.333,10.078
				c-3.142,2.759-6.787,4.862-10.938,6.309c-4.151,1.447-8.576,2.172-13.273,2.172c-4.698,0-9.122-0.725-13.273-2.172
				c-4.151-1.446-7.798-3.55-10.938-6.309c-3.143-2.758-5.586-6.117-7.334-10.078c-1.748-3.96-2.621-8.344-2.621-13.15
				c0-4.753,0.887-9.107,2.662-13.069c1.774-3.959,4.22-7.359,7.334-10.2c3.113-2.84,6.759-5.011,10.938-6.514
				c4.179-1.502,8.59-2.254,13.232-2.254S494.368,208.14,498.521,209.642z M476.972,231.191c-2.131,2.322-3.196,5.176-3.196,8.562
				c0,3.497,1.078,6.351,3.236,8.563c2.157,2.212,4.93,3.318,8.316,3.318s6.158-1.106,8.316-3.318
				c2.157-2.212,3.237-5.065,3.237-8.563c0-3.386-1.065-6.239-3.196-8.562c-2.13-2.321-4.916-3.482-8.357-3.482
				C481.888,227.708,479.102,228.869,476.972,231.191z"/>
		</g>
		<g>
			<path d="M639.472,482.953v0.573c-0.109,6.337-0.573,11.362-1.393,15.076c-0.819,3.715-2.841,7.292-6.063,10.733
				c-3.224,3.496-7.169,6.2-11.839,8.111c-4.671,1.911-9.464,2.868-14.38,2.868c-4.752,0-9.191-0.711-13.314-2.131
				c-4.125-1.42-7.743-3.495-10.856-6.227s-5.545-6.05-7.292-9.955c-1.749-3.905-2.622-8.289-2.622-13.151
				c0-4.916,0.86-9.381,2.581-13.396c1.721-4.016,4.138-7.429,7.251-10.242c3.113-2.813,6.745-4.957,10.897-6.432
				c4.15-1.476,8.657-2.213,13.52-2.213c2.73,0,5.625,0.342,8.685,1.024c3.059,0.684,6.009,1.693,8.85,3.031
				c2.839,1.34,5.394,3.02,7.66,5.039c2.267,2.021,3.975,4.289,5.121,6.801l-20.976,7.702c-0.819-1.528-1.98-2.704-3.481-3.523
				c-1.503-0.819-3.183-1.229-5.039-1.229c-3.824,0-6.856,1.406-9.095,4.22c-2.241,2.813-3.359,6.186-3.359,10.118
				c0,3.605,1.051,6.706,3.154,9.3c2.102,2.595,4.902,3.892,8.398,3.892c1.966,0,3.851-0.463,5.653-1.393
				c1.803-0.928,2.949-2.266,3.441-4.015h-10.16v-14.584H639.472z"/>
		</g>
		<g>
			<path d="M384.902,358.023c-2.021-1.856-4.138-3.359-6.351-4.507c-2.212-1.146-4.493-1.721-6.841-1.721
				c-3.388,0-6.269,1.176-8.645,3.523c-2.376,2.35-3.564,5.19-3.564,8.521c0,1.693,0.328,3.265,0.983,4.711
				c0.655,1.448,1.569,2.732,2.745,3.852c1.174,1.12,2.525,1.98,4.056,2.581c1.528,0.602,3.113,0.9,4.752,0.9
				c2.458,0,4.738-0.491,6.842-1.475c2.103-0.983,4.109-2.402,6.022-4.261l-0.655,23.106c-0.819,0.383-1.926,0.737-3.318,1.064
				c-1.394,0.328-2.827,0.587-4.302,0.778s-2.95,0.341-4.425,0.451c-1.475,0.108-2.786,0.164-3.933,0.164
				c-4.315,0-8.398-0.793-12.249-2.377c-3.852-1.583-7.211-3.81-10.078-6.678c-2.868-2.867-5.095-6.213-6.678-10.036
				c-1.585-3.823-2.376-7.894-2.376-12.209c0-4.424,0.819-8.616,2.458-12.577c1.639-3.959,3.945-7.428,6.923-10.405
				c2.977-2.977,6.433-5.298,10.365-6.965c3.933-1.665,8.111-2.499,12.536-2.499c5.134,0,10.159,0.848,15.076,2.54L384.902,358.023z
				"/>
		</g>
		<g>
			<path d="M461.732,332.95h47.194v20.074l-12.372-0.573v42.278h-22.45v-42.278l-12.372,0.573V332.95z"/>
		</g>
		<g>
			<path d="M456.734,457.553h21.549l20.156,34.249h0.655l-0.163-0.819c-0.547-3.223-0.971-5.968-1.271-8.234
				c-0.301-2.267-0.45-4.492-0.45-6.678v-18.518h21.467v61.779H497.21l-19.747-32.446h-0.655c0.929,5.354,1.393,9.478,1.393,12.372
				v20.074h-21.467V457.553z"/>
		</g>
		<g>
			<path d="M464.681,582.209h22.45v41.951h18.845v19.828h-41.295V582.209z"/>
		</g>
		<g>
			<path d="M584.494,582.209h41.541v16.879h-18.927v5.899h17.288v16.059h-17.288v6.063h19.583v16.879h-42.197V582.209z"/>
		</g>
		<g>
			<path d="M354.659,519.332h-23.761l21.467-61.779h24.826l22.04,61.779h-23.761l-2.049-7.702h-16.96L354.659,519.332z
				 M369.489,496.964l-2.622-10.897c-0.383-1.639-0.848-4.179-1.393-7.62l-0.082-0.328h-0.819l-4.097,18.846H369.489z"/>
		</g>
		<g>
			<path d="M221.323,457.553h47.194v20.074l-12.372-0.573v42.278h-22.45v-42.278l-12.372,0.573V457.553z"/>
		</g>
		<g>
			<path d="M336.889,582.209h26.138c3.331,0,6.391,0.246,9.177,0.737c2.785,0.492,5.312,1.353,7.578,2.581
				c2.267,1.229,4.069,2.99,5.408,5.285c1.338,2.294,2.008,5.135,2.008,8.521c0,2.841-0.711,5.422-2.131,7.743
				c-1.421,2.322-3.414,3.892-5.981,4.711v0.492c3.495,1.202,6.199,3.046,8.112,5.53c1.911,2.486,2.867,5.531,2.867,9.136
				c0,3.06-0.643,5.682-1.926,7.866c-1.283,2.186-3.004,3.961-5.161,5.325c-2.159,1.366-4.576,2.35-7.252,2.95
				c-2.677,0.602-5.436,0.901-8.275,0.901h-30.562V582.209z M359.749,605.97c2.13,0,3.822-0.286,5.079-0.859
				c1.257-0.574,1.885-1.815,1.885-3.729c0-1.803-0.602-2.963-1.803-3.482c-1.202-0.519-3.086-0.778-5.653-0.778H357.7v8.849
				H359.749z M357.7,629.24h2.54c1.311,0,2.43-0.04,3.359-0.122c0.928-0.082,1.829-0.287,2.704-0.615
				c0.873-0.327,1.583-0.846,2.13-1.557c0.546-0.709,0.819-1.665,0.819-2.867c0-1.201-0.273-2.157-0.819-2.868
				c-0.547-0.709-1.284-1.215-2.212-1.516c-0.93-0.3-1.885-0.491-2.868-0.573s-2.13-0.123-3.441-0.123H357.7V629.24z"/>
		</g>
		<g>
			<path d="M273.396,332.459v36.543c0,8.74-2.526,15.295-7.578,19.664c-5.054,4.371-12.059,6.556-21.017,6.556
				c-8.959,0-15.965-2.185-21.017-6.556c-5.053-4.369-7.579-10.924-7.579-19.664v-36.543h22.45v34.413
				c0,1.529,0.054,2.785,0.164,3.769c0.109,0.983,0.354,1.885,0.737,2.704c0.382,0.819,0.996,1.462,1.844,1.926
				c0.847,0.464,1.979,0.696,3.4,0.696c1.42,0,2.553-0.232,3.4-0.696c0.846-0.464,1.475-1.106,1.885-1.926
				c0.409-0.819,0.655-1.721,0.737-2.704s0.122-2.239,0.122-3.769v-34.413H273.396z"/>
		</g>
		<circle cx="605.593" cy="380.543" r="14.173"/>
		<g>
			<path d="M234.201,582.21h22.45v61.779h-22.45V582.21z"/>
		</g>
	</g>
</g>
</svg>
