<svg id="Objects" xmlns="http://www.w3.org/2000/svg" viewBox="0 0 70 70"><defs><style>.cls-1{fill:#1d1d1b;}.cls-2{fill:none;stroke:#1d1d1b;stroke-miterlimit:10;stroke-width:2px;}</style></defs><path class="cls-1" d="M47.59,17.5h1.85a4.4,4.4,0,0,1,1.19.15,2.52,2.52,0,0,1,.93.45,2,2,0,0,1,.62.81,2.79,2.79,0,0,1,.23,1.16,2.48,2.48,0,0,1-.19,1,2.06,2.06,0,0,1-.52.77,2.11,2.11,0,0,1-.8.49,3,3,0,0,1-1,.17h-2.3ZM49.41,21h.11a1.27,1.27,0,0,0,.78-.23.86.86,0,0,0,.29-.7,1,1,0,0,0-.28-.76,1.17,1.17,0,0,0-.79-.25h-.11Z"/><path class="cls-1" d="M27.67,17.5h2.19a3,3,0,0,1,.81.1,1.81,1.81,0,0,1,.66.3,1.48,1.48,0,0,1,.45.54,1.81,1.81,0,0,1,.16.8,1.38,1.38,0,0,1-.22.84,1.58,1.58,0,0,1-.75.46v0l0,0a1.06,1.06,0,0,1,.28.28l1.09,1.62h-2.1l-.79-1.6h0v1.6H27.67Zm1.77,2.21h.13a.94.94,0,0,0,.44-.08.34.34,0,0,0,.16-.33A.37.37,0,0,0,30,19a.84.84,0,0,0-.43-.08h-.14Z"/><path class="cls-1" d="M17.83,17.5h2.31a2.22,2.22,0,0,1,1.47.47,1.69,1.69,0,0,1,.56,1.37A1.54,1.54,0,0,1,20.51,21h-.92V22.5H17.83Zm1.76,2.23H20a.66.66,0,0,0,.2-.06.5.5,0,0,0,.15-.14.48.48,0,0,0,.06-.24.39.39,0,0,0-.06-.23.28.28,0,0,0-.16-.12.46.46,0,0,0-.2-.05h-.42Z"/><path class="cls-1" d="M41.06,17.63a2.55,2.55,0,0,1,.87.52,2.3,2.3,0,0,1,.59.82,2.51,2.51,0,0,1,.21,1,2.61,2.61,0,0,1-.21,1.06,2.32,2.32,0,0,1-.58.8,2.75,2.75,0,0,1-.88.51,3.39,3.39,0,0,1-2.12,0,2.75,2.75,0,0,1-.88-.51,2.32,2.32,0,0,1-.58-.8A2.61,2.61,0,0,1,37.27,20a2.51,2.51,0,0,1,.21-1,2.42,2.42,0,0,1,.59-.82,2.55,2.55,0,0,1,.87-.52,3.21,3.21,0,0,1,2.12,0Zm-1.73,1.72a1,1,0,0,0-.25.69.92.92,0,0,0,.25.68,1,1,0,0,0,1.34,0,.92.92,0,0,0,.25-.68,1,1,0,0,0-.25-.69,1,1,0,0,0-1.34,0Z"/><path class="cls-1" d="M31.13,29.58a3,3,0,0,0-.51-.36,1.16,1.16,0,0,0-.54-.13.94.94,0,0,0-.7.28.91.91,0,0,0-.28.68.81.81,0,0,0,.08.38.93.93,0,0,0,.22.31,1.16,1.16,0,0,0,.32.2,1,1,0,0,0,.38.07,1.42,1.42,0,0,0,.55-.11,1.73,1.73,0,0,0,.48-.35l-.05,1.85-.27.09a3.43,3.43,0,0,1-.34.06l-.36,0H29.8a2.43,2.43,0,0,1-2.32-1.53,2.43,2.43,0,0,1-.19-1,2.58,2.58,0,0,1,1.58-2.4,2.59,2.59,0,0,1,1-.2,3.88,3.88,0,0,1,1.21.2Z"/><path class="cls-1" d="M38.09,27.5h3.82v1.62l-1,0V32.5H39.09V29.08l-1,0Z"/><path class="cls-1" d="M38.17,47.5H40v3.4h1.53v1.6H38.17Z"/><path class="cls-1" d="M48.31,47.5h3.36v1.37H50.14v.47h1.4v1.3h-1.4v.49h1.59V52.5H48.31Z"/><path class="cls-1" d="M29.16,42.5H27.23l1.74-5h2l1.79,5H30.84l-.16-.62H29.3Zm1.2-1.81-.21-.88c0-.13-.07-.34-.12-.62v0H30l-.33,1.53Z"/><path class="cls-1" d="M18.09,37.5h3.82v1.62l-1,0V42.5H19.09V39.08l-1,0Z"/><path class="cls-1" d="M27.85,47.5H30a4.38,4.38,0,0,1,.75.06,2,2,0,0,1,.61.21,1.13,1.13,0,0,1,.44.43,1.31,1.31,0,0,1,.16.69,1.2,1.2,0,0,1-.17.62.84.84,0,0,1-.49.38v0a1.39,1.39,0,0,1,.66.45,1.21,1.21,0,0,1,.23.74,1.29,1.29,0,0,1-.15.64,1.44,1.44,0,0,1-.42.43,1.93,1.93,0,0,1-.59.24,3,3,0,0,1-.67.07H27.85Zm1.85,1.92a.94.94,0,0,0,.41-.07q.15-.06.15-.3a.28.28,0,0,0-.14-.28,1.3,1.3,0,0,0-.46-.06h-.13v.71Zm-.17,1.89H30l.22,0a.37.37,0,0,0,.17-.13.33.33,0,0,0,.07-.23.32.32,0,0,0-.07-.23.35.35,0,0,0-.18-.13.85.85,0,0,0-.23,0h-.46Z"/><path class="cls-1" d="M37.5,37.5h1.74l1.63,2.77h.06l0-.06c0-.27-.07-.49-.1-.67a4.89,4.89,0,0,1,0-.54V37.5h1.73v5H40.78l-1.6-2.63h-.06a6,6,0,0,1,.12,1V42.5H37.5Z"/><path class="cls-1" d="M52.71,39.56v0a6.92,6.92,0,0,1-.11,1.2,1.84,1.84,0,0,1-.49.86,2.52,2.52,0,0,1-.94.65,3.1,3.1,0,0,1-1.15.23A3.38,3.38,0,0,1,49,42.38a2.51,2.51,0,0,1-.87-.5,2.23,2.23,0,0,1-.58-.8,2.52,2.52,0,0,1-.21-1A2.65,2.65,0,0,1,47.5,39a2.27,2.27,0,0,1,.58-.82,2.7,2.7,0,0,1,.87-.51A3.14,3.14,0,0,1,50,37.45a3.4,3.4,0,0,1,.69.08,4,4,0,0,1,.71.24,2.9,2.9,0,0,1,.62.41,1.58,1.58,0,0,1,.4.54l-1.67.62a.69.69,0,0,0-.28-.28.79.79,0,0,0-.4-.1.87.87,0,0,0-.73.34,1.23,1.23,0,0,0-.27.8,1.15,1.15,0,0,0,.25.75.81.81,0,0,0,.67.31,1.07,1.07,0,0,0,.46-.11.53.53,0,0,0,.27-.32h-.81V39.56Z"/><rect class="cls-2" x="10" y="10" width="50" height="50"/><path class="cls-1" d="M22.3,27.5v2.94A2,2,0,0,1,21.69,32a2.52,2.52,0,0,1-1.69.53A2.52,2.52,0,0,1,18.31,32a2,2,0,0,1-.61-1.58V27.5h1.84v2.77c0,.12,0,.22,0,.3a.79.79,0,0,0,.06.22.36.36,0,0,0,.15.15A.58.58,0,0,0,20,31a.55.55,0,0,0,.28-.06.28.28,0,0,0,.15-.15.43.43,0,0,0,.06-.22,2.63,2.63,0,0,0,0-.3V27.5Z"/><circle class="cls-1" cx="50" cy="31.55" r="1"/><path class="cls-1" d="M19.09,47.5h1.82v5H19.09Z"/></svg>