<?xml version="1.0" encoding="utf-8"?>
<!-- Generator: Adobe Illustrator 22.1.0, SVG Export Plug-In . SVG Version: 6.00 Build 0)  -->
<svg version="1.1" id="Layer_1" xmlns="http://www.w3.org/2000/svg" xmlns:xlink="http://www.w3.org/1999/xlink" x="0px" y="0px"
	 viewBox="0 0 85 85" style="enable-background:new 0 0 85 85;" xml:space="preserve">
<style type="text/css">
	.st0{fill:#FFFFFF;}
</style>
<g>
	<path class="st0" d="M76.6,78.6H8.5c-1.1,0-2-0.9-2-2V8.5c0-1.1,0.9-2,2-2h68.1c1.1,0,2,0.9,2,2v68.1
		C78.6,77.7,77.7,78.6,76.6,78.6z M9.4,75.7h66.3V9.4H9.4V75.7z"/>
</g>
<g>
	<g>
		<polygon class="st0" points="54.1,27.3 42.5,38.8 31,27.3 27.3,31 38.8,42.5 27.3,54.1 31,57.8 42.5,46.3 54.1,57.8 57.8,54.1 
			46.3,42.5 57.8,31 		"/>
	</g>
</g>
</svg>
