<?xml version="1.0" encoding="utf-8"?>
<!-- Generator: Adobe Illustrator 23.0.2, SVG Export Plug-In . SVG Version: 6.00 Build 0)  -->
<svg version="1.1" xmlns="http://www.w3.org/2000/svg" xmlns:xlink="http://www.w3.org/1999/xlink" x="0px" y="0px"
	 viewBox="0 0 50 50" style="enable-background:new 0 0 50 50;" xml:space="preserve">
<style type="text/css">
	.st0{fill:none;}
	.st1{fill:#FFFFFF;}
	.st2{fill:none;stroke:#FFFFFF;stroke-width:2.8633;stroke-miterlimit:10;}
	.st3{fill:none;stroke:#000000;stroke-width:2.8633;stroke-miterlimit:10;}
</style>
<g id="Layer_1">
</g>
<g id="Insta">
</g>
<g id="Back">
</g>
<g id="Behance">
</g>
<g id="Linkedin">
</g>
<g id="Youtube">
</g>
<g id="Guides">
	<path d="M37.414,19.588c-0.282-1.88-1.273-2.876-3.151-3.061c-6.198-0.615-12.398-0.62-18.599-0.039c-1.7,0.151-2.72,1.142-3,2.852
		c-0.304,1.878-0.465,3.745-0.47,5.624c-0.005,1.879,0.145,3.747,0.439,5.626c0.271,1.712,1.285,2.708,2.984,2.869
		c6.198,0.615,12.398,0.644,18.599,0.063c1.88-0.174,2.876-1.165,3.168-3.043c0.268-1.818,0.417-3.637,0.422-5.444
		C37.811,23.228,37.672,21.408,37.414,19.588z M22.476,28.847l0.021-7.708c2.258,1.311,4.397,2.549,6.692,3.872
		C26.887,26.322,24.742,27.549,22.476,28.847z"/>
	<g>
		<path d="M25.005,3L25.005,3l0.051,0c5.878,0.013,11.397,2.314,15.54,6.479c4.143,4.165,6.417,9.696,6.404,15.577
			C46.973,37.156,37.101,47,24.995,47l-0.051,0c-5.878-0.013-11.397-2.314-15.54-6.479C5.261,36.356,2.987,30.824,3,24.944
			C3.027,12.844,12.899,3,25.005,3 M25.005,0C11.219,0,0.031,11.144,0,24.938C-0.031,38.75,11.125,49.969,24.938,50
			c0.019,0,0.038,0,0.058,0C38.781,50,49.969,38.856,50,25.062C50.031,11.25,38.875,0.031,25.062,0C25.043,0,25.024,0,25.005,0
			L25.005,0z"/>
	</g>
</g>
</svg>
