<?xml version="1.0" encoding="utf-8"?>
<!-- Generator: Adobe Illustrator 23.0.2, SVG Export Plug-In . SVG Version: 6.00 Build 0)  -->
<svg version="1.1" xmlns="http://www.w3.org/2000/svg" xmlns:xlink="http://www.w3.org/1999/xlink" x="0px" y="0px"
	 viewBox="0 0 50 50" style="enable-background:new 0 0 50 50;" xml:space="preserve">
<style type="text/css">
	.st0{fill:none;}
	.st1{fill:#FFFFFF;}
	.st2{fill:none;stroke:#FFFFFF;stroke-width:2.8633;stroke-miterlimit:10;}
	.st3{fill:none;stroke:#000000;stroke-width:2.8633;stroke-miterlimit:10;}
</style>
<g id="Layer_1">
</g>
<g id="Insta">
</g>
<g id="Back">
</g>
<g id="Behance">
</g>
<g id="Linkedin">
</g>
<g id="Youtube">
</g>
<g id="Guides">
	<path d="M26.774,16.619v3.701h5.076l-0.702,5.324h-4.375v13.042H21.45V25.643h-4.395V20.32h4.395v-4.471
		c0-3.252,2.636-5.888,5.888-5.888h4.595v4.787h-3.288C27.611,14.748,26.774,15.586,26.774,16.619z"/>
	<g>
		<path d="M25.005,3L25.005,3l0.051,0c5.878,0.013,11.397,2.314,15.54,6.479c4.143,4.165,6.417,9.696,6.404,15.577
			C46.973,37.156,37.101,47,24.995,47l-0.051,0c-5.878-0.013-11.397-2.314-15.54-6.479C5.261,36.356,2.987,30.824,3,24.944
			C3.027,12.844,12.899,3,25.005,3 M25.004,0C11.219,0,0.031,11.144,0,24.938C-0.031,38.75,11.125,49.969,24.938,50
			c0.019,0,0.038,0,0.058,0C38.781,50,49.969,38.856,50,25.062C50.031,11.25,38.875,0.031,25.062,0C25.043,0,25.024,0,25.004,0
			L25.004,0z"/>
	</g>
</g>
</svg>
