<?xml version="1.0" encoding="utf-8"?>
<!-- Generator: Adobe Illustrator 23.0.2, SVG Export Plug-In . SVG Version: 6.00 Build 0)  -->
<svg version="1.1" xmlns="http://www.w3.org/2000/svg" xmlns:xlink="http://www.w3.org/1999/xlink" x="0px" y="0px"
	 viewBox="0 0 50 50" style="enable-background:new 0 0 50 50;" xml:space="preserve">
<style type="text/css">
	.st0{fill:none;}
	.st1{fill:#FFFFFF;}
	.st2{fill:none;stroke:#FFFFFF;stroke-width:2.8633;stroke-miterlimit:10;}
	.st3{fill:none;stroke:#000000;stroke-width:2.8633;stroke-miterlimit:10;}
</style>
<g id="Layer_1">
</g>
<g id="Insta">
</g>
<g id="Back">
</g>
<g id="Behance">
</g>
<g id="Linkedin">
</g>
<g id="Youtube">
</g>
<g id="Guides">
	<g>
		<path class="st1" d="M23.049,24.071c0,0,2.951-0.174,2.951-3.645s-1.909-5.207-5.033-5.207H10.553v19.266H21.14
			c0,0,5.207,0.174,5.207-5.728C26.521,28.584,26.868,24.071,23.049,24.071z M14.371,17.996h5.381c0,0,1.736,0,1.736,2.43
			s-1.736,2.43-1.736,2.43h-5.381V17.996z M20.272,31.534h-5.901v-5.728h5.728c0,0,2.951,0,2.951,2.951S20.619,31.534,20.272,31.534
			z"/>
		<path class="st1" d="M34.678,19.906c-7.29,0-7.29,7.29-7.29,7.29s-0.521,7.29,7.29,7.29c0,0,6.769,0,6.769-5.728h-3.818
			c0,0,0,2.951-2.951,2.951c0,0-2.951,0-2.951-3.818c0,0,7.637,0,9.546,0C41.447,25.807,41.447,19.906,34.678,19.906z
			 M31.728,25.807c0,0,0-2.951,2.951-2.951s2.951,2.951,2.951,2.951H31.728z"/>
		<rect x="30.86" y="17.129" class="st1" width="7.637" height="1.909"/>
		<g>
			<path class="st1" d="M25,3c12.131,0,22,9.869,22,22s-9.869,22-22,22S3,37.131,3,25S12.869,3,25,3 M25,0C11.187,0,0,11.187,0,25
				s11.187,25,25,25s25-11.187,25-25S38.813,0,25,0L25,0z"/>
		</g>
	</g>
</g>
</svg>
