<?xml version="1.0" encoding="utf-8"?>
<!-- Generator: Adobe Illustrator 23.0.2, SVG Export Plug-In . SVG Version: 6.00 Build 0)  -->
<svg version="1.1" xmlns="http://www.w3.org/2000/svg" xmlns:xlink="http://www.w3.org/1999/xlink" x="0px" y="0px"
	 viewBox="0 0 50 50" style="enable-background:new 0 0 50 50;" xml:space="preserve">
<style type="text/css">
	.st0{fill:none;}
	.st1{fill:#FFFFFF;}
	.st2{fill:none;stroke:#FFFFFF;stroke-width:2.8633;stroke-miterlimit:10;}
	.st3{fill:none;stroke:#000000;stroke-width:2.8633;stroke-miterlimit:10;}
</style>
<g id="Layer_1">
</g>
<g id="Insta">
</g>
<g id="Back">
</g>
<g id="Behance">
</g>
<g id="Linkedin">
</g>
<g id="Youtube">
</g>
<g id="Guides">
	<g>
		<g>
			<path d="M25,3c12.131,0,22,9.869,22,22s-9.869,22-22,22S3,37.131,3,25S12.869,3,25,3 M25,0C11.19,0,0,11.19,0,25s11.19,25,25,25
				s25-11.19,25-25S38.81,0,25,0L25,0z"/>
		</g>
		<path class="st3" d="M31.615,36.764H18.373c-2.841,0-5.143-2.303-5.143-5.143V18.379c0-2.841,2.303-5.143,5.143-5.143h13.242
			c2.841,0,5.143,2.303,5.143,5.143v13.242C36.758,34.461,34.456,36.764,31.615,36.764z"/>
		<circle class="st3" cx="25.001" cy="25" r="5.38"/>
		<g>
			<circle cx="31.836" cy="18.165" r="1.789"/>
		</g>
	</g>
</g>
</svg>
