<?xml version="1.0" encoding="utf-8"?>
<!-- Generator: Adobe Illustrator 23.0.2, SVG Export Plug-In . SVG Version: 6.00 Build 0)  -->
<svg version="1.1" xmlns="http://www.w3.org/2000/svg" xmlns:xlink="http://www.w3.org/1999/xlink" x="0px" y="0px"
	 viewBox="0 0 50 50" style="enable-background:new 0 0 50 50;" xml:space="preserve">
<style type="text/css">
	.st0{fill:none;}
	.st1{fill:#FFFFFF;}
	.st2{fill:none;stroke:#FFFFFF;stroke-width:2.8633;stroke-miterlimit:10;}
	.st3{fill:none;stroke:#000000;stroke-width:2.8633;stroke-miterlimit:10;}
</style>
<g id="Layer_1">
</g>
<g id="Insta">
</g>
<g id="Back">
</g>
<g id="Behance">
</g>
<g id="Linkedin">
</g>
<g id="Youtube">
</g>
<g id="Guides">
	<g>
		<path class="st1" d="M36.742,34.492v-8.629c0-4.668-2.546-6.79-5.8-6.79c-2.688,0-3.82,1.415-4.527,2.546v-2.122h-5.093
			c0,1.415,0,14.995,0,14.995h5.093v-8.346c0-0.424,0-0.849,0.141-1.273c0.424-0.849,1.132-1.839,2.546-1.839
			c1.839,0,2.546,1.415,2.546,3.395v8.063L36.742,34.492L36.742,34.492z M16.088,17.516c1.698,0,2.829-1.132,2.829-2.688
			s-1.132-2.546-2.829-2.546c-1.698,0-2.829,1.132-2.829,2.546C13.258,16.385,14.39,17.516,16.088,17.516L16.088,17.516z
			 M18.634,34.492V19.497h-5.093v14.995H18.634z"/>
		<g>
			<path class="st1" d="M25,3c12.131,0,22,9.869,22,22s-9.869,22-22,22S3,37.131,3,25S12.869,3,25,3 M25,0C11.188,0,0,11.187,0,25
				s11.188,25,25,25c13.813,0,25-11.187,25-25S38.813,0,25,0L25,0z"/>
		</g>
	</g>
</g>
</svg>
